<svg height="480pt" viewBox="-56 0 479 480" width="480pt" xmlns="http://www.w3.org/2000/svg"><path d="m367.363281 467.878906-21.738281-36.230468 14.082031-28.074219c.539063-1.113281.8125-2.335938.800781-3.574219v-320c0-.65625-.082031-1.308594-.242187-1.945312l-7.367187-29.488282 15.039062-37.597656c.984375-2.464844.683594-5.257812-.804688-7.457031-1.488281-2.195313-3.972656-3.511719-6.625-3.511719h-352c-2.660156-.00390625-5.144531 1.316406-6.632812 3.515625s-1.7890625 4.996094-.800781 7.460937l15.039062 37.597657-7.367187 29.488281c-.160156.632812-.238282 1.285156-.238282 1.9375v320c-.003906 1.242188.285157 2.464844.839844 3.574219l14.039063 28.074219-21.738281 36.230468c-1.484376 2.472656-1.523438 5.550782-.105469 8.058594 1.421875 2.511719 4.082031 4.0625 6.964843 4.0625h352c2.882813 0 5.539063-1.550781 6.960938-4.0625 1.417969-2.507812 1.378906-5.585938-.105469-8.058594zm-344.722656-3.878906 14.402344-24h27.464843v-16h-27.058593l-12.941407-25.886719v-317.128906l6.238282-24.984375h257.761718v-16h-258.585937l-9.601563-24h328.371094l-11.617187 29.023438c-.625 1.566406-.738281 3.285156-.328125 4.921874l7.761718 31.039063v317.128906l-12.945312 25.886719h-67.054688v16h67.46875l14.402344 24zm0 0"/><path d="m312.507812 240c0-70.691406-57.308593-128-128-128-70.695312 0-128 57.308594-128 128s57.304688 128 128 128c70.65625-.082031 127.914063-57.34375 128-128zm-128 112c-61.859374 0-112-50.144531-112-112s50.140626-112 112-112c61.855469 0 112 50.144531 112 112-.066406 61.828125-50.171874 111.933594-112 112zm0 0"/><path d="m144.875 162.726562c-3.140625-.234374-6.105469 1.476563-7.472656 4.3125-1.335938 2.5625-32.328125 63.359376-8.328125 104.960938s92.183593 45.144531 95.0625 45.273438h.371093c.710938-.007813 1.417969-.101563 2.101563-.289063.273437-.082031.511719-.214844.800781-.320313.382813-.125.753906-.28125 1.113282-.464843l.054687-.046875c.792969-.484375 1.5-1.105469 2.078125-1.832032.167969-.207031.304688-.425781.457031-.648437.152344-.222656.367188-.457031.511719-.71875 1.320312-2.554687 32.3125-63.351563 8.3125-104.953125s-92.183594-45.144531-95.0625-45.273438zm78.582031 128.738282-10.398437-18.082032 11.304687-20.796874c2.109375-3.886719.671875-8.746094-3.214843-10.855469-3.882813-2.109375-8.742188-.671875-10.851563 3.214843l-6.621094 12.167969-32.242187-55.753906c-2.222656-3.792969-7.09375-5.082031-10.902344-2.882813-3.808594 2.199219-5.125 7.0625-2.953125 10.882813l20.160156 34.914063-23.902343-3.136719c-4.371094-.550781-8.359376 2.53125-8.933594 6.898437-.570313 4.363282 2.492187 8.371094 6.851562 8.964844l36.0625 4.734375 21.792969 37.753906c-19.710937-3.199219-53.121094-12-66.671875-35.488281-16.238281-28.121094.152344-70.695312 6.441406-84.847656 15.398438 1.601562 60.414063 8.65625 76.695313 36.847656 13.511719 23.398438 4.441406 56.753906-2.617188 75.464844zm0 0"/><path d="m88.507812 424h96v16h-96zm0 0"/><path d="m304.507812 40h16v16h-16zm0 0"/></svg>