<?xml version="1.0" encoding="UTF-8"?>
<!DOCTYPE svg PUBLIC "-//W3C//DTD SVG 1.1//EN" "http://www.w3.org/Graphics/SVG/1.1/DTD/svg11.dtd">
<!-- Creator: CorelDRAW 2019 (64-Bit) -->
<svg xmlns="http://www.w3.org/2000/svg" xml:space="preserve" width="168.855mm" height="73.5888mm" version="1.1" style="shape-rendering:geometricPrecision; text-rendering:geometricPrecision; image-rendering:optimizeQuality; fill-rule:evenodd; clip-rule:evenodd"
viewBox="0 0 17635.19 7685.58"
 xmlns:xlink="http://www.w3.org/1999/xlink">
 <defs>
  <style type="text/css">
   <![CDATA[
    .fil1 {fill:#393185;fill-rule:nonzero}
    .fil0 {fill:#4FB337;fill-rule:nonzero}
   ]]>
  </style>
    <clipPath id="id0">
     <rect x="6148.99" width="3547.76" height="5832.77"/>
    </clipPath>
 </defs>
 <g id="Слой_x0020_1">
  <metadata id="CorelCorpID_0Corel-Layer"/>
  <g id="_1227523376">
   <path class="fil0" d="M2071.44 687.54c-75.2,102.55 -136.16,196.54 -182.87,282.01 -46.72,85.45 -88.3,171.48 -124.76,258.07l-44.44 -34.18c13.67,-36.46 31.91,-77.47 54.7,-123.05 22.79,-45.58 48.43,-92.87 76.91,-141.86 28.49,-48.99 58.68,-97.99 90.58,-146.99 31.91,-48.99 64.95,-94 99.13,-135.02l30.76 41.02zm-581.09 1394.63l0 -765.68 51.27 47.85 0 765.69 -51.27 -47.86zm-1415.16 799.87l259.79 -235.86 0 -775.94c-59.25,0 -111.67,14.82 -157.24,44.44 -45.58,29.63 -78.62,59.25 -99.12,88.88l-41.02 -30.77c34.18,-41.01 75.21,-76.33 123.06,-105.96 47.85,-29.63 105.96,-45.58 174.33,-47.85l0 -82.04c-59.25,0 -120.21,15.38 -182.88,46.14 -62.66,30.77 -113.37,67.8 -152.11,111.09 0,-102.54 31.33,-183.44 94,-242.69 62.67,-59.26 143,-90.02 240.99,-92.29l0 -731.51 -259.79 -239.28 1900.54 0c-66.08,88.88 -124.19,178.32 -174.33,268.34 -50.13,90.02 -100.26,185.15 -150.4,285.42 -25.07,-54.7 -50.69,-105.4 -76.91,-152.12 -26.2,-46.72 -57.54,-87.17 -94,-121.35 -36.46,-34.18 -80.33,-60.39 -131.6,-78.61 -51.27,-18.24 -114.51,-27.35 -189.71,-27.35l-458.04 0 0 796.46 82.04 0 0 -714.42 376 0c31.91,0 67.23,2.29 105.96,6.84 38.75,4.55 76.91,13.67 114.52,27.34 37.6,13.67 71.78,31.33 102.54,52.98 30.77,21.65 54.13,49.57 70.08,83.75l-13.67 10.26c-22.79,-27.34 -50.71,-49.57 -83.75,-66.65 -33.04,-17.1 -67.79,-30.19 -104.25,-39.31 -36.46,-9.12 -71.78,-15.38 -105.96,-18.8 -34.18,-3.43 -62.67,-5.13 -85.46,-5.13l-324.73 0 0 663.14 338.41 0 225.61 -293.98 10.26 0 0 765.69 -10.26 0 -225.61 -293.97 -471.71 0 0 970.78 82.04 0 0 -888.74 389.67 0 37.61 51.27 -376.01 0 0 837.47 167.5 0c95.71,0 176.61,-3.99 242.7,-11.96 66.08,-7.98 124.76,-26.78 176.03,-56.41 51.28,-29.62 99.7,-72.36 145.28,-128.18 45.58,-55.83 94.57,-131.6 146.99,-227.31 22.79,66.08 45.58,124.76 68.37,176.03 22.79,51.28 46.72,99.7 71.78,145.28 25.07,45.58 53.55,90.59 85.45,135.02 31.91,44.44 68.37,91.73 109.38,141.86l-1972.32 0zm2033.86 133.31l-1917.64 0 -44.43 -51.27 1931.3 0 68.37 -78.62c-43.3,-52.41 -80.9,-100.84 -112.81,-145.28 -31.9,-44.43 -60.95,-87.73 -87.17,-129.89 -26.2,-42.15 -48.99,-84.31 -68.37,-126.48 -19.36,-42.15 -37.02,-89.44 -52.98,-141.85l68.37 27.34c11.39,36.46 25.64,72.36 42.73,107.68 17.1,35.32 37.61,73.49 61.54,114.51 23.93,41.02 53.55,85.45 88.87,133.32 35.32,47.85 78.05,102.54 128.19,164.07l-105.96 126.47zm2006.5 -2245.77c-41.01,63.8 -88.3,153.25 -141.86,268.33 -53.55,115.08 -109.94,247.82 -169.2,398.23l-41.01 -34.18c50.13,-129.89 100.27,-251.24 150.4,-364.05 50.13,-112.79 105.96,-219.33 167.49,-319.6l34.18 51.27zm-85.45 -126.48c-29.63,50.13 -60.39,104.83 -92.29,164.07 -31.91,59.25 -62.1,119.64 -90.58,181.17 -28.49,61.53 -55.27,121.35 -80.33,179.46 -25.07,58.11 -46.72,111.09 -64.94,158.95l-13.67 -6.84c-2.29,-68.37 -11.39,-137.87 -27.35,-208.51 -15.95,-70.64 -42.73,-135.58 -80.32,-194.83 -37.6,-59.26 -86.6,-107.68 -146.99,-145.28 -60.39,-37.61 -135.02,-56.41 -223.89,-56.41 -134.46,0 -243.27,36.46 -326.45,109.39 -83.18,72.92 -147.55,161.79 -193.13,266.61 -45.58,104.83 -76.35,215.92 -92.29,333.29 -15.95,117.36 -23.93,221.61 -23.93,312.77 0,123.05 10.82,245.54 32.47,367.46 21.65,121.91 56.97,230.73 105.96,326.44 49,95.72 112.81,173.77 191.43,234.15 78.62,60.39 176.03,90.58 292.25,90.58 93.43,0 177.18,-15.38 251.24,-46.14 74.07,-30.77 136.73,-72.93 188,-126.48 51.28,-53.56 90.59,-117.36 117.93,-191.43 27.34,-74.06 41.02,-155.52 41.02,-244.4 0,-15.95 5.13,-34.18 15.37,-54.7 10.26,-20.5 31.34,-30.76 63.24,-30.76 27.35,0 46.15,10.82 56.41,32.47 10.26,21.65 15.38,45 15.38,70.07 0,116.22 -17.1,221.05 -51.28,314.48 -34.18,93.43 -84.31,173.77 -150.4,240.99 -66.08,67.22 -147.55,119.06 -244.4,155.52 -96.86,36.47 -207.95,54.7 -333.28,54.7 -173.19,0 -322.46,-31.33 -447.8,-94 -125.33,-62.67 -229.02,-148.13 -311.05,-256.37 -82.04,-108.25 -143,-234.15 -182.88,-377.72 -39.88,-143.57 -59.81,-297.39 -59.81,-461.47 0,-168.63 19.94,-325.87 59.81,-471.71 39.89,-145.85 101.41,-272.89 184.59,-381.13 83.18,-108.25 187.44,-193.14 312.78,-254.67 125.33,-61.53 273.45,-92.29 444.37,-92.29 82.04,0 152.11,8.55 210.22,25.64 58.11,17.09 111.09,35.32 158.95,54.7 47.85,19.36 94.57,37.6 140.15,54.68 45.58,17.1 96.86,25.64 153.83,25.64 29.62,0 62.09,-5.69 97.41,-17.09 35.32,-11.39 65.53,-26.21 90.59,-44.44l13.67 3.42zm23.93 1627.09c0,120.77 -21.08,230.15 -63.24,328.15 -42.16,97.99 -102.55,181.16 -181.17,249.53 -78.61,68.37 -172.62,121.35 -282,158.95 -109.39,37.6 -230.16,56.41 -362.33,56.41 -132.18,0 -247.25,-18.24 -345.25,-54.7 -97.99,-36.46 -170.92,-88.88 -218.77,-157.24l10.26 -17.09c66.09,59.25 143,103.69 230.74,133.31 87.73,29.63 195.41,44.44 323.02,44.44 136.72,0 258.64,-20.51 365.75,-61.53 107.1,-41.02 197.69,-98.56 271.75,-172.62 74.06,-74.07 130.47,-162.94 169.2,-266.62 38.74,-103.69 58.11,-219.34 58.11,-346.96l17.09 3.43c2.28,18.22 3.99,35.32 5.13,51.27 1.14,15.96 1.71,33.04 1.71,51.28zm-519.58 -1298.94c-43.29,-50.13 -94,-83.74 -152.11,-100.84 -58.11,-17.09 -112.23,-25.64 -162.37,-25.64 -107.1,0 -193.69,30.19 -259.78,90.59 -66.09,60.39 -117.92,135.02 -155.53,223.89 -37.6,88.88 -63.24,185.16 -76.91,288.85 -13.67,103.68 -20.51,199.96 -20.51,288.84 0,227.88 34.76,424.43 104.26,589.64 69.5,165.21 160.08,280.86 271.75,346.95l-10.26 23.93c-68.37,-27.34 -128.75,-71.21 -181.17,-131.6 -52.41,-60.39 -95.71,-133.31 -129.89,-218.76 -34.18,-85.46 -60.39,-180.03 -78.62,-283.72 -18.22,-103.69 -27.34,-212.49 -27.34,-326.44 0,-84.31 6.84,-181.17 20.51,-290.55 13.67,-109.38 41.01,-212.5 82.04,-309.35 41.01,-96.85 97.99,-178.32 170.9,-244.41 72.93,-66.08 169.78,-99.12 290.55,-99.12 68.37,0 133.32,13.67 194.84,41.01 61.53,27.35 109.38,70.65 143.56,129.9l-23.93 6.83zm2820.05 765.69c0,177.75 -22.21,346.95 -66.65,507.61 -44.44,160.66 -112.81,301.37 -205.1,422.16 -92.29,120.77 -208.51,217.06 -348.66,288.84 -140.15,71.78 -304.79,107.68 -493.93,107.68 -82.04,0 -158.38,-8.55 -229.03,-25.64 -70.64,-17.1 -134.46,-40.45 -191.43,-70.08 -56.96,-29.62 -106.53,-62.66 -148.69,-99.12 -42.15,-36.46 -75.77,-75.21 -100.84,-116.22l17.1 -13.67c75.2,79.76 166.35,145.28 273.45,196.54 107.1,51.27 233.58,76.91 379.43,76.91 180.02,0 336.69,-33.61 470,-100.84 133.32,-67.23 243.84,-158.95 331.57,-275.17 87.73,-116.22 153.24,-251.81 196.54,-406.77 43.3,-154.96 64.95,-319.03 64.95,-492.22 0,-116.22 -11.39,-226.17 -34.18,-329.86 -22.79,-103.69 -53.56,-199.4 -92.29,-287.14 -38.75,-87.73 -84.31,-165.78 -136.73,-234.14 -52.41,-68.37 -107.1,-125.34 -164.07,-170.92l20.51 -10.26c148.12,95.72 261.5,233.02 340.11,411.9 78.62,178.89 117.93,385.7 117.93,620.41zm-133.31 0c0,168.63 -21.09,325.3 -63.24,470.01 -42.16,144.7 -104.26,270.6 -186.3,377.72 -82.04,107.1 -184.59,191.42 -307.64,252.94 -123.06,61.53 -265.49,92.29 -427.28,92.29 -170.9,0 -317.89,-31.91 -440.95,-95.71 -123.05,-63.81 -225.03,-149.83 -305.92,-258.08 -80.9,-108.24 -140.72,-234.72 -179.46,-379.42 -38.74,-144.71 -58.11,-297.96 -58.11,-459.75 0,-173.19 21.08,-332.71 63.24,-478.55 42.15,-145.85 104.25,-271.75 186.29,-377.72 82.04,-105.96 184.59,-189.14 307.65,-249.53 123.05,-60.4 265.47,-90.59 427.27,-90.59 177.75,0 328.72,33.04 452.92,99.13 124.19,66.08 225.6,154.96 304.22,266.62 78.61,111.66 136.16,239.27 172.62,382.83 36.46,143.57 54.7,292.84 54.7,447.8zm-413.61 0c0,-88.88 -8.54,-192.57 -25.64,-311.06 -17.09,-118.5 -46.72,-230.16 -88.87,-334.99 -42.16,-104.83 -100.27,-193.69 -174.33,-266.61 -74.06,-72.93 -168.06,-109.39 -282.01,-109.39 -77.47,0 -145.28,16.52 -203.39,49.57 -58.11,33.04 -108.24,76.91 -150.4,131.6 -42.15,54.68 -77.47,117.36 -105.96,188 -28.48,70.64 -50.71,144.14 -66.65,220.47 -15.95,76.35 -27.34,152.12 -34.18,227.31 -6.83,75.21 -10.26,143.57 -10.26,205.1 0,125.34 10.26,248.96 30.77,370.88 20.51,121.92 54.12,230.73 100.84,326.45 46.72,95.71 105.96,173.18 177.75,232.44 71.78,59.25 158.95,88.87 261.5,88.87 100.27,0 186.3,-29.62 258.08,-88.87 71.78,-59.26 131.03,-136.73 177.75,-232.44 46.72,-95.72 80.9,-204.52 102.55,-326.45 21.65,-121.91 32.47,-245.54 32.47,-370.88zm-239.27 -745.18c-50.14,-52.42 -101.99,-89.44 -155.53,-111.09 -53.56,-21.65 -109.95,-32.47 -169.2,-32.47 -88.88,0 -162.37,33.04 -220.48,99.12 -58.11,66.09 -103.68,145.28 -136.72,237.57 -33.04,92.29 -55.83,189.71 -68.37,292.26 -12.53,102.54 -18.8,189.14 -18.8,259.78 0,109.38 9.12,215.34 27.34,317.89 18.24,102.55 43.86,195.98 76.91,280.29 33.04,84.31 72.36,155.53 117.93,213.64 45.58,58.11 95.71,98.56 150.4,121.35l-6.84 23.93c-70.64,-22.79 -131.6,-64.38 -182.87,-124.76 -51.27,-60.39 -94.01,-133.88 -128.19,-220.48 -34.18,-86.59 -59.81,-182.87 -76.91,-288.84 -17.09,-105.96 -25.63,-213.64 -25.63,-323.02 0,-47.85 2.84,-103.69 8.54,-167.5 5.69,-63.8 15.38,-130.46 29.06,-199.96 13.67,-69.5 32.47,-138.45 56.4,-206.8 23.93,-68.37 54.12,-129.33 90.58,-182.88 36.47,-53.55 79.76,-96.85 129.9,-129.89 50.13,-33.04 109.38,-49.56 177.75,-49.56 61.53,0 123.63,14.24 186.29,42.73 62.67,28.48 115.66,74.63 158.95,138.43l-20.5 10.26z"/>
   <path class="fil1" d="M11926.74 4215.91c0,211.93 -26.2,390.82 -78.62,536.66 -52.41,145.85 -125.9,264.35 -220.47,355.5 -94.57,91.15 -208.51,157.23 -341.82,198.26 -133.32,41.01 -282.01,61.53 -446.08,61.53l-933.18 0 259.78 -232.44 0 -1821.92 -259.78 -239.28 933.18 0c724.66,0 1087,380.57 1087,1141.69zm150.4 34.18c0,221.05 -25.64,410.19 -76.91,567.43 -51.28,157.23 -128.19,286.56 -230.73,387.97 -102.55,101.4 -231.3,176.03 -386.27,223.89 -154.96,47.85 -336.12,71.78 -543.49,71.78l-782.77 0 -68.37 -51.27 851.14 0c200.53,0 374.86,-22.79 522.99,-68.37 148.12,-45.58 271.18,-116.78 369.16,-213.64 98,-96.85 171.49,-221.05 220.48,-372.59 48.99,-151.54 73.49,-333.28 73.49,-545.21 0,-84.31 -6.28,-169.2 -18.81,-254.66 -12.53,-85.45 -31.33,-166.93 -56.4,-244.41 -25.07,-77.47 -55.83,-149.83 -92.29,-217.06 -36.46,-67.22 -77.47,-125.9 -123.05,-176.03l17.09 -6.84c50.13,43.3 95.14,97.42 135.02,162.37 39.89,64.94 74.06,136.72 102.55,215.34 28.48,78.62 50.13,162.36 64.95,251.24 14.81,88.88 22.21,178.88 22.21,270.04zm-550.33 -37.6c0,-325.87 -55.83,-567.99 -167.5,-726.38 -111.66,-158.37 -295.1,-237.57 -550.33,-237.57l-276.88 0 0 1944.98 82.05 0 0 -1862.94 263.2 0c36.46,0 74.06,2.29 112.81,6.84 38.74,4.55 76.91,13.11 114.51,25.64 37.6,12.53 72.36,30.19 104.25,52.98 31.91,22.79 58.11,52.41 78.62,88.87l-10.26 10.26c-25.07,-29.62 -54.12,-52.98 -87.17,-70.07 -33.03,-17.1 -67.79,-30.19 -104.25,-39.31 -36.46,-9.12 -72.92,-15.38 -109.38,-18.8 -36.47,-3.43 -69.5,-5.13 -99.13,-5.13l-211.93 0 0 1811.66 143.56 0c136.73,0 251.24,-23.35 343.53,-70.07 92.29,-46.72 166.35,-112.81 222.18,-198.26 55.83,-85.46 95.14,-188.58 117.93,-309.35 22.79,-120.78 34.18,-255.23 34.18,-403.36zm2150.07 133.31c50.14,100.27 98,189.15 143.57,266.62 45.57,77.48 95.13,152.68 148.69,225.61 53.55,72.92 114.51,148.69 182.87,227.31 68.37,78.61 150.4,169.2 246.11,271.74 -116.22,31.91 -230.73,67.23 -343.53,105.96 -112.81,38.75 -215.92,88.88 -309.35,150.4l-54.7 -27.34c79.76,-52.41 175.47,-100.84 287.14,-145.28 111.67,-44.44 222.18,-79.19 331.56,-104.25 -84.31,-88.88 -158.95,-172.05 -223.89,-249.54 -64.95,-77.47 -124.2,-154.39 -177.75,-230.73 -53.56,-76.35 -104.26,-156.67 -152.12,-240.98 -47.85,-84.31 -95.71,-177.75 -143.56,-280.29 70.64,-22.79 140.15,-52.42 208.51,-88.88 68.36,-36.46 128.75,-80.9 181.16,-133.31 52.42,-52.42 94.57,-113.38 126.48,-182.87 31.91,-69.5 47.85,-149.84 47.85,-240.99 0,-109.38 -19.94,-202.81 -59.82,-280.29 -39.88,-77.47 -88.3,-140.15 -145.28,-188l17.1 -10.26c59.25,31.91 113.94,89.45 164.07,172.63 50.13,83.18 75.2,185.15 75.2,305.92 0,95.72 -15.37,179.46 -46.14,251.24 -30.77,71.79 -71.22,134.46 -121.35,188.01 -50.13,53.55 -108.82,99.7 -176.04,138.43 -67.22,38.74 -136.16,71.78 -206.8,99.12zm3.43 -717.82c0,-145.85 -38.17,-254.09 -114.52,-324.73 -76.33,-70.64 -186.29,-105.96 -329.86,-105.96 -72.92,0 -145.84,9.68 -218.76,29.06 -72.93,19.37 -133.32,45 -181.17,76.91l0 905.84 82.04 -10.26 0 -840.88c45.58,-25.07 99.7,-43.88 162.37,-56.41 62.66,-12.53 123.63,-18.8 182.87,-18.8 63.8,0 126.48,10.83 188,32.48 61.53,21.64 111.66,62.09 150.4,121.34l-23.93 10.26c-43.3,-47.85 -92.87,-79.19 -148.69,-94 -55.83,-14.81 -111.1,-22.22 -165.79,-22.22 -45.58,0 -96.28,5.13 -152.12,15.38 -55.83,10.26 -103.11,24.5 -141.85,42.73l0 803.29c82.04,-9.12 165.21,-24.49 249.53,-46.14 84.31,-21.65 160.66,-54.12 229.03,-97.42 68.36,-43.3 124.19,-98.56 167.49,-165.79 43.3,-67.23 64.95,-152.11 64.95,-254.66zm-762.27 823.79c68.37,-4.55 136.16,-11.96 203.39,-22.21 67.23,-10.26 135.02,-22.21 203.39,-35.9 -6.84,-11.38 -13.11,-23.93 -18.8,-37.6 -5.7,-13.67 -10.82,-27.34 -15.38,-41.01 -79.76,18.22 -160.08,31.9 -240.98,41.01 -80.9,9.12 -152.12,15.96 -213.64,20.51l0 758.85 259.78 232.44 -885.31 0 259.78 -232.44 0 -601.6c-29.63,2.28 -54.12,4.55 -73.49,6.83 -19.37,2.28 -37.6,4.55 -54.7,6.84 -17.09,2.28 -34.75,5.13 -52.98,8.54 -18.22,3.42 -41.01,7.4 -68.37,11.96l-34.17 -51.27c41.01,-6.84 83.74,-13.11 128.18,-18.8 44.44,-5.7 96.28,-10.82 155.53,-15.38l0 -85.45c-43.3,4.55 -89.44,9.12 -138.45,13.67 -48.99,4.55 -99.7,12.53 -152.11,23.93l78.62 -235.86c15.95,2.28 34.18,4.55 54.68,6.83 20.51,2.29 41.02,4.56 61.54,6.84 20.5,2.28 39.3,3.99 56.4,5.13 17.09,1.14 30.19,1.71 39.31,1.71l0 -786.2 -222.18 -109.38c59.25,-50.14 127.61,-93.43 205.09,-129.89 77.48,-36.46 158.95,-67.23 244.41,-92.29 85.45,-25.07 172.62,-43.88 261.5,-56.41 88.87,-12.53 174.33,-18.8 256.37,-18.8 104.83,0 209.65,8.55 314.48,25.64 104.83,17.09 198.82,49.57 282,97.42 83.18,47.85 150.98,112.81 203.39,194.84 52.42,82.04 78.62,188 78.62,317.89 0,82.04 -16.52,155.53 -49.57,220.47 -33.04,64.95 -76.91,121.35 -131.6,169.2 -54.68,47.85 -118.5,89.44 -191.42,124.76 -72.92,35.32 -148.13,64.38 -225.6,87.17 43.29,100.27 87.73,193.13 133.31,278.59 45.58,85.45 94.01,168.06 145.28,247.81 51.28,79.76 108.24,158.96 170.92,237.57 62.66,78.62 133.88,161.23 213.64,247.82 -50.14,13.67 -95.72,27.34 -136.73,41.02 -41.02,13.67 -80.9,27.91 -119.64,42.73 -38.75,14.81 -77.48,32.47 -116.22,52.98 -38.75,20.51 -82.04,44.44 -129.89,71.78 -13.68,-84.31 -32.48,-172.05 -56.41,-263.21 -23.93,-91.14 -50.71,-181.74 -80.32,-271.74 -29.63,-90.02 -59.82,-178.32 -90.58,-264.92 -30.77,-86.59 -59.82,-167.49 -87.17,-242.69 -61.54,11.39 -123.64,22.21 -186.3,32.47 -62.66,10.26 -124.76,18.8 -186.29,25.64l0 608.44 276.87 249.53 -92.29 143.56 -827.2 0 -51.28 -51.27 847.73 0 54.68 -82.04 -259.78 -235.86 0 -680.24zm1630.5 1049.4l-51.28 -51.27 847.73 0 54.7 -82.04 -259.78 -235.86 0 -1780.9 232.43 -218.77 34.18 37.61 -215.34 201.67 0 1736.46 276.88 249.53 -92.29 143.56 -827.21 0zm-116.22 -133.31l259.78 -232.44 0 -1821.92 -259.78 -239.28 885.32 0 -259.79 239.28 0 1821.92 259.79 232.44 -885.32 0zm3079.82 -1668.1c0,150.4 -30.76,271.18 -92.29,362.33 -61.53,91.15 -137.86,161.22 -229.02,210.23 -91.15,48.99 -189.71,80.9 -295.68,95.71 -105.96,14.81 -203.39,22.21 -292.26,22.21 -54.68,0 -112.79,-1.7 -174.33,-5.13 -61.53,-3.42 -118.5,-8.54 -170.9,-15.38l0 765.69 259.78 232.44 -885.32 0 259.78 -232.44 0 -646.04c-59.25,0 -103.11,7.4 -131.59,22.21 -28.49,14.81 -55.27,33.61 -80.33,56.4l-51.27 -20.5c25.07,-25.07 56.97,-49.57 95.71,-73.49 38.74,-23.93 94.57,-35.9 167.49,-35.9l0 -82.04c-66.08,0 -126.47,10.83 -181.16,32.48 -54.7,21.64 -101.41,55.26 -140.15,100.84 0,-102.55 29.62,-180.03 88.88,-232.44 59.25,-52.42 136.72,-83.18 232.43,-92.29l0 -851.14 -259.78 -239.28 943.43 0c104.83,0 212.5,5.13 323.02,15.38 110.53,10.26 211.36,36.46 302.52,78.62 91.14,42.16 165.78,104.83 223.89,188 58.11,83.18 87.17,197.69 87.17,343.53zm-413.6 3.42c0,-82.04 -13.67,-152.11 -41.02,-210.22 -27.34,-58.11 -64.94,-104.83 -112.79,-140.15 -47.85,-35.32 -104.26,-61.53 -169.2,-78.62 -64.95,-17.09 -133.88,-25.64 -206.81,-25.64l-311.05 0 0 936.6c6.83,2.28 21.08,4.55 42.73,6.83 21.65,2.28 34.75,3.43 39.31,3.43l0 -864.82 263.2 0c36.47,0 74.63,2.29 114.52,6.84 39.88,4.55 79.19,13.11 117.92,25.64 38.75,12.53 74.07,30.19 105.96,52.98 31.91,22.79 58.11,52.41 78.62,88.87l-6.83 10.26c-25.08,-29.62 -54.7,-52.98 -88.88,-70.07 -34.18,-17.1 -70.08,-30.19 -107.68,-39.31 -37.6,-9.12 -75.2,-15.38 -112.79,-18.8 -37.61,-3.43 -71.22,-5.13 -100.85,-5.13l-211.93 0 0 816.96c11.39,2.28 34.18,3.99 68.37,5.13 34.18,1.14 64.95,1.7 92.29,1.7 66.09,0 131.6,-7.4 196.54,-22.21 64.95,-14.81 123.63,-41.02 176.04,-78.62 52.41,-37.6 94.57,-88.87 126.48,-153.82 31.91,-64.95 47.85,-147.55 47.85,-247.82zm-758.85 748.59c38.74,4.56 79.76,8.55 123.05,11.97 43.3,3.42 85.46,5.13 126.48,5.13 102.55,0 211.93,-7.4 328.15,-22.21 116.22,-14.82 223.9,-49 323.03,-102.55 99.12,-53.56 181.16,-131.03 246.11,-232.44 64.94,-101.41 97.42,-237.57 97.42,-408.48 0,-107.1 -21.09,-202.81 -63.24,-287.13 -42.16,-84.32 -96.28,-150.4 -162.37,-198.26l17.1 -20.51c77.47,43.3 140.15,111.09 188,203.39 47.85,92.29 71.78,193.13 71.78,302.51 0,184.59 -35.32,330.44 -105.96,437.54 -70.64,107.1 -158.38,188.57 -263.21,244.4 -104.83,55.83 -218.2,91.73 -340.11,107.68 -121.92,15.95 -234.15,23.93 -336.7,23.93 -68.37,0 -134.45,-3.42 -198.26,-10.26l0 601.61 276.88 249.53 -92.29 143.56 -827.21 0 -51.27 -51.27 847.72 0 54.7 -82.04 -259.78 -235.86 0 -680.24z"/>
   <g>
    <path class="fil1" d="M805.04 7645.88l-16.49 -22.06 364.72 0 32.45 -35.3 -86.15 -101.47 193.48 -766.22 123.77 -94.12 10.62 16.18 -114.56 86.77 -188.66 747.1 92.01 107.36 -55.3 61.77 -355.9 0zm-35.52 -57.36l137.02 -100 197.93 -783.87 -85.78 -102.95 380.9 0 -137.77 102.95 -197.93 783.87 86.52 100 -380.9 0zm1244.93 -439.73c10.66,43.14 21.61,81.38 32.79,114.72 11.2,33.34 24.36,65.69 39.47,97.07 15.12,31.37 33.11,63.97 53.98,97.8 20.88,33.83 46.33,72.79 76.37,116.92 -53.47,13.72 -106.58,28.92 -159.32,45.59 -52.74,16.67 -102.55,38.24 -149.43,64.71l-20.56 -11.77c40.02,-22.55 86.46,-43.38 139.32,-62.5 52.88,-19.12 104.2,-34.08 153.99,-44.86 -26.63,-38.24 -49.69,-74.03 -69.21,-107.36 -19.53,-33.34 -36.67,-66.42 -51.42,-99.27 -14.75,-32.85 -27.83,-67.41 -39.26,-103.68 -11.44,-36.28 -21.87,-76.48 -31.31,-120.6 32.87,-9.81 65.98,-22.55 99.35,-38.24 33.38,-15.69 64.19,-34.81 92.44,-57.36 28.24,-22.55 52.99,-48.77 74.28,-78.68 21.27,-29.9 36.87,-64.46 46.77,-103.68 11.89,-47.06 13.46,-87.26 4.72,-120.6 -8.74,-33.34 -22.77,-60.29 -42.09,-80.89l8.47 -4.41c22.03,13.72 39.31,38.49 51.83,74.27 12.54,35.78 12.24,79.66 -0.88,131.63 -10.4,41.18 -26.11,77.21 -47.15,108.09 -21.02,30.88 -45.23,57.85 -72.63,80.89 -27.38,23.04 -57.64,42.89 -90.78,59.56 -33.13,16.67 -66.38,30.88 -99.74,42.64zm79.46 -308.84c15.84,-62.75 11.19,-109.32 -13.98,-139.71 -25.18,-30.39 -68.65,-45.6 -130.41,-45.6 -31.37,0 -63.8,4.17 -97.28,12.5 -33.48,8.33 -62.25,19.36 -86.3,33.1l-98.41 389.73 36.41 -4.42 91.35 -361.78c22.34,-10.79 47.66,-18.87 75.99,-24.27 28.32,-5.39 55.23,-8.08 80.72,-8.08 27.45,0 53.23,4.66 77.35,13.97 24.13,9.31 41.3,26.72 51.53,52.21l-11.42 4.41c-13.42,-20.59 -31.34,-34.07 -53.76,-40.44 -22.41,-6.38 -45.38,-9.57 -68.91,-9.57 -19.61,0 -41.98,2.2 -67.12,6.62 -25.13,4.41 -47.03,10.54 -65.67,18.38l-87.27 345.61c36.28,-3.93 73.74,-10.55 112.38,-19.85 38.62,-9.32 75,-23.29 109.12,-41.92 34.11,-18.62 64.14,-42.4 90.07,-71.32 25.93,-28.92 44.47,-65.44 55.61,-109.57zm-417.47 354.44c29.91,-1.96 59.89,-5.15 89.92,-9.57 30.04,-4.41 60.5,-9.56 91.41,-15.44 -1.7,-4.91 -3.04,-10.3 -4,-16.18 -0.97,-5.89 -1.69,-11.77 -2.16,-17.65 -36.3,7.84 -72.35,13.72 -108.14,17.65 -35.8,3.92 -67.19,6.86 -94.15,8.83l-82.43 326.49 86.52 100 -380.91 0 137.02 -100 65.36 -258.84c-12.99,0.98 -23.78,1.96 -32.36,2.95 -8.58,0.98 -16.68,1.96 -24.27,2.93 -7.6,0.98 -15.52,2.21 -23.73,3.68 -8.22,1.47 -18.45,3.2 -30.72,5.15l-9.13 -22.06c18.39,-2.95 37.45,-5.64 57.18,-8.08 19.74,-2.45 42.61,-4.66 68.59,-6.62l9.28 -36.76c-19.11,1.95 -39.47,3.92 -61.04,5.88 -21.58,1.96 -44.25,5.39 -68.04,10.3l59.46 -101.48c6.61,0.98 14.2,1.96 22.78,2.95 8.58,0.98 17.16,1.96 25.73,2.95 8.57,0.97 16.48,1.71 23.71,2.2 7.23,0.49 12.8,0.73 16.72,0.73l85.41 -338.25 -83.71 -47.06c30.95,-21.58 65.07,-40.2 102.35,-55.89 37.31,-15.69 75.7,-28.93 115.2,-39.71 39.48,-10.79 79.03,-18.87 118.62,-24.27 39.6,-5.39 77.06,-8.08 112.35,-8.08 45.1,0 89.27,3.68 132.51,11.03 43.24,7.35 80.17,21.33 110.75,41.91 30.59,20.59 52.7,48.53 66.34,83.83 13.64,35.29 13.4,80.88 -0.71,136.76 -8.91,35.3 -24.01,66.91 -45.27,94.86 -21.27,27.94 -46.29,52.21 -75.01,72.79 -28.73,20.6 -60.7,38.49 -95.91,53.68 -35.22,15.2 -70.73,27.7 -106.54,37.5 7.74,43.13 16.76,83.09 27.09,119.85 10.32,36.77 22.18,72.31 35.57,106.62 13.4,34.32 29.31,68.39 47.73,102.22 18.42,33.83 40.07,69.37 64.99,106.62 -23.05,5.88 -44.16,11.77 -63.29,17.65 -19.12,5.88 -37.83,12.01 -56.1,18.38 -18.28,6.37 -36.87,13.97 -55.77,22.8 -18.89,8.81 -40.12,19.11 -63.68,30.88 3.28,-36.28 4.71,-74.03 4.33,-113.24 -0.4,-39.22 -2.08,-78.19 -5.03,-116.92 -2.98,-38.73 -6.37,-76.72 -10.2,-113.97 -3.82,-37.25 -7.53,-72.06 -11.13,-104.42 -27.71,4.91 -55.6,9.56 -83.68,13.97 -28.07,4.41 -55.72,8.08 -82.95,11.03l-66.1 261.78 92.01 107.36 -55.3 61.77 -355.9 0 -16.49 -22.06 364.72 0 32.45 -35.3 -86.15 -101.47 73.9 -292.66zm1292.47 -45.6c10.66,43.14 21.61,81.38 32.79,114.72 11.2,33.34 24.36,65.69 39.47,97.07 15.12,31.37 33.11,63.97 53.98,97.8 20.88,33.83 46.33,72.79 76.37,116.92 -53.47,13.72 -106.58,28.92 -159.32,45.59 -52.74,16.67 -102.55,38.24 -149.43,64.71l-20.56 -11.77c40.02,-22.55 86.46,-43.38 139.32,-62.5 52.88,-19.12 104.2,-34.08 153.99,-44.86 -26.63,-38.24 -49.69,-74.03 -69.21,-107.36 -19.53,-33.34 -36.67,-66.42 -51.42,-99.27 -14.75,-32.85 -27.83,-67.41 -39.26,-103.68 -11.44,-36.28 -21.87,-76.48 -31.31,-120.6 32.87,-9.81 65.98,-22.55 99.35,-38.24 33.38,-15.69 64.19,-34.81 92.44,-57.36 28.24,-22.55 52.99,-48.77 74.28,-78.68 21.27,-29.9 36.87,-64.46 46.77,-103.68 11.89,-47.06 13.46,-87.26 4.72,-120.6 -8.74,-33.34 -22.77,-60.29 -42.09,-80.89l8.47 -4.41c22.03,13.72 39.31,38.49 51.83,74.27 12.54,35.78 12.24,79.66 -0.88,131.63 -10.4,41.18 -26.11,77.21 -47.15,108.09 -21.02,30.88 -45.23,57.85 -72.63,80.89 -27.38,23.04 -57.64,42.89 -90.78,59.56 -33.13,16.67 -66.38,30.88 -99.74,42.64zm79.46 -308.84c15.84,-62.75 11.19,-109.32 -13.98,-139.71 -25.18,-30.39 -68.65,-45.6 -130.41,-45.6 -31.37,0 -63.8,4.17 -97.28,12.5 -33.48,8.33 -62.25,19.36 -86.3,33.1l-98.41 389.73 36.41 -4.42 91.35 -361.78c22.34,-10.79 47.66,-18.87 75.99,-24.27 28.32,-5.39 55.23,-8.08 80.72,-8.08 27.45,0 53.23,4.66 77.35,13.97 24.13,9.31 41.3,26.72 51.53,52.21l-11.42 4.41c-13.42,-20.59 -31.34,-34.07 -53.76,-40.44 -22.41,-6.38 -45.38,-9.57 -68.91,-9.57 -19.61,0 -41.98,2.2 -67.12,6.62 -25.13,4.41 -47.03,10.54 -65.67,18.38l-87.27 345.61c36.28,-3.93 73.74,-10.55 112.38,-19.85 38.62,-9.32 75,-23.29 109.12,-41.92 34.11,-18.62 64.14,-42.4 90.07,-71.32 25.93,-28.92 44.47,-65.44 55.61,-109.57zm-417.47 354.44c29.91,-1.96 59.89,-5.15 89.92,-9.57 30.04,-4.41 60.5,-9.56 91.41,-15.44 -1.7,-4.91 -3.04,-10.3 -4,-16.18 -0.97,-5.89 -1.69,-11.77 -2.16,-17.65 -36.3,7.84 -72.35,13.72 -108.14,17.65 -35.8,3.92 -67.19,6.86 -94.15,8.83l-82.43 326.49 86.52 100 -380.91 0 137.02 -100 65.36 -258.84c-12.99,0.98 -23.78,1.96 -32.36,2.95 -8.58,0.98 -16.68,1.96 -24.27,2.93 -7.6,0.98 -15.52,2.21 -23.73,3.68 -8.22,1.47 -18.45,3.2 -30.72,5.15l-9.13 -22.06c18.39,-2.95 37.45,-5.64 57.18,-8.08 19.74,-2.45 42.61,-4.66 68.59,-6.62l9.28 -36.76c-19.11,1.95 -39.47,3.92 -61.04,5.88 -21.58,1.96 -44.25,5.39 -68.04,10.3l59.46 -101.48c6.61,0.98 14.2,1.96 22.78,2.95 8.58,0.98 17.16,1.96 25.73,2.95 8.57,0.97 16.48,1.71 23.71,2.2 7.23,0.49 12.8,0.73 16.72,0.73l85.41 -338.25 -83.71 -47.06c30.95,-21.58 65.07,-40.2 102.35,-55.89 37.31,-15.69 75.7,-28.93 115.2,-39.71 39.48,-10.79 79.03,-18.87 118.62,-24.27 39.6,-5.39 77.06,-8.08 112.35,-8.08 45.1,0 89.27,3.68 132.51,11.03 43.24,7.35 80.17,21.33 110.75,41.91 30.59,20.59 52.7,48.53 66.34,83.83 13.64,35.29 13.4,80.88 -0.71,136.76 -8.91,35.3 -24.01,66.91 -45.27,94.86 -21.27,27.94 -46.29,52.21 -75.01,72.79 -28.73,20.6 -60.7,38.49 -95.91,53.68 -35.22,15.2 -70.73,27.7 -106.54,37.5 7.74,43.13 16.76,83.09 27.09,119.85 10.32,36.77 22.18,72.31 35.57,106.62 13.4,34.32 29.31,68.39 47.73,102.22 18.42,33.83 40.07,69.37 64.99,106.62 -23.05,5.88 -44.16,11.77 -63.29,17.65 -19.12,5.88 -37.83,12.01 -56.1,18.38 -18.28,6.37 -36.87,13.97 -55.77,22.8 -18.89,8.81 -40.12,19.11 -63.68,30.88 3.28,-36.28 4.71,-74.03 4.33,-113.24 -0.4,-39.22 -2.08,-78.19 -5.03,-116.92 -2.98,-38.73 -6.37,-76.72 -10.2,-113.97 -3.82,-37.25 -7.53,-72.06 -11.13,-104.42 -27.71,4.91 -55.6,9.56 -83.68,13.97 -28.07,4.41 -55.72,8.08 -82.95,11.03l-66.1 261.78 92.01 107.36 -55.3 61.77 -355.9 0 -16.49 -22.06 364.72 0 32.45 -35.3 -86.15 -101.47 73.9 -292.66zm587.5 451.49l-16.49 -22.06 364.72 0 32.45 -35.3 -86.15 -101.47 193.48 -766.22 123.77 -94.12 10.62 16.18 -114.56 86.77 -188.66 747.1 92.01 107.36 -55.3 61.77 -355.9 0zm-35.52 -57.36l137.02 -100 197.93 -783.87 -85.78 -102.95 380.9 0 -137.77 102.95 -197.93 783.87 86.52 100 -380.9 0zm1623 -923.58c-32.95,41.18 -65.78,83.83 -98.49,127.95 -32.71,44.13 -66.53,90.7 -101.46,139.72l-13.19 -17.65c34.92,-49.02 69.3,-95.84 103.11,-140.45 33.81,-44.61 67.45,-88.48 100.89,-131.63l9.14 22.06zm-241.29 477.97l-87.27 345.61 71.81 100 -432.38 0c-76.47,0 -138.64,-12.01 -186.5,-36.03 -47.85,-24.02 -83.62,-58.09 -107.29,-102.22 -23.66,-44.12 -35.91,-96.56 -36.73,-157.36 -0.83,-60.78 8.03,-127.95 26.6,-201.47 17.83,-70.6 42.94,-137.02 75.32,-199.28 32.4,-62.26 71.8,-116.43 118.26,-162.51 46.44,-46.08 99.72,-82.36 159.83,-108.83 60.13,-26.48 126.95,-39.71 200.48,-39.71 36.27,0 67.58,3.19 93.91,9.56 26.34,6.37 51.07,13.23 74.21,20.59 23.14,7.36 46.48,13.97 70,19.85 23.52,5.89 50.97,8.83 82.34,8.83 13.72,0 29.6,-2.69 47.62,-8.08 18.03,-5.39 33.55,-12.5 46.57,-21.33l4.76 4.41c-79.39,89.22 -152.06,182.85 -217.99,280.9l-5.16 -2.93c3.28,-32.36 2.13,-62.76 -3.44,-91.19 -5.57,-28.43 -15.93,-53.43 -31.06,-75.01 -15.15,-21.57 -35.81,-38.73 -62.02,-51.47 -26.19,-12.75 -58.41,-19.12 -96.65,-19.12 -51.96,0 -98.75,13.48 -140.36,40.45 -41.62,26.96 -77.99,61.27 -109.1,102.95 -31.11,41.67 -57.58,88.24 -79.39,139.71 -21.82,51.48 -39.05,102.22 -51.68,152.22 -13.37,52.94 -22.01,104.66 -25.94,155.16 -3.93,50.49 0.38,95.58 12.91,135.29 12.52,39.71 35.35,71.57 68.5,95.59 33.16,24.02 80.62,36.03 142.38,36.03l126.48 0 88.39 -350.02 -107.36 0c-7.84,0 -18.99,-0.48 -33.45,-1.46 -14.45,-0.98 -29.11,-3.19 -43.92,-6.62 -14.82,-3.44 -27.85,-9.07 -39.12,-16.91 -11.25,-7.84 -17.95,-19.12 -20.14,-33.83l3.69 -2.95c15.4,16.67 34.19,27.7 56.36,33.1 22.17,5.39 49.43,8.08 81.79,8.08l107.36 0 9.28 -36.76 -142.65 0c-14.71,0 -29.79,-1.47 -45.22,-4.42 -15.44,-2.93 -29.01,-8.33 -40.76,-16.18 -11.75,-7.84 -20.3,-18.62 -25.65,-32.36 -5.36,-13.72 -5.2,-31.86 0.49,-54.41 5.2,-20.59 15.49,-38.97 30.85,-55.14 15.35,-16.18 34.32,-24.27 56.87,-24.27 16.67,0 28.6,5.15 35.8,15.45 7.2,10.29 8.7,23.77 4.49,40.44 -6.18,24.51 -22.65,39.22 -49.37,44.13 5.62,4.9 12.47,7.84 20.55,8.81 8.09,0.98 17.54,1.47 28.31,1.47l413.26 0 -138.89 113.24zm-40.68 -345.6c-18.32,-28.44 -39.95,-49.51 -64.92,-63.25 -24.96,-13.72 -58.53,-20.59 -100.68,-20.59 -38.24,0 -73.32,9.81 -105.23,29.41 -31.92,19.61 -61.03,46.58 -87.34,80.89 -26.31,34.32 -49.45,74.52 -69.42,120.6 -19.97,46.08 -36.51,95.1 -49.64,147.07 -11.63,46.08 -18.86,90.19 -21.66,132.36 -2.8,42.16 -0.69,80.4 6.34,114.71 7.02,34.32 19.45,63.73 37.27,88.24 17.84,24.51 41.08,42.16 69.72,52.95l-5.55 10.29c-35.03,-8.81 -62.37,-25.73 -82.04,-50.74 -19.68,-25 -33.5,-55.63 -41.5,-91.92 -8,-36.27 -10.35,-76.47 -7.05,-120.59 3.3,-44.13 10.77,-89.22 22.4,-135.3 12.88,-50.99 29.55,-100.5 50.02,-148.54 20.46,-48.04 44.7,-90.68 72.74,-127.95 28.04,-37.25 59.85,-67.15 95.45,-89.7 35.61,-22.56 75.46,-33.83 119.58,-33.83 39.22,0 73.82,7.59 103.81,22.79 29.97,15.21 53.01,41.43 69.11,78.68l-11.42 4.42zm-421.64 848.57c-63.73,0 -115.24,-8.58 -154.54,-25.73 -39.29,-17.16 -64.67,-38 -76.14,-62.51l7.74 -7.35c16.87,22.55 45.18,40.44 84.98,53.68 39.8,13.23 87.64,19.85 143.52,19.85l451.49 0 32.46 -35.3 -76.56 -110.3 80.95 -320.61 120.47 -98.53 11 14.71 -112.01 94.12 -75.76 300.01 82.43 116.19 -55.3 61.77 -464.74 0zm917.07 -626.5c11.74,7.84 23.55,16.42 35.41,25.73 11.86,9.32 23.3,19.36 34.3,30.15l15.14 -25c-10.51,-12.75 -20.34,-23.29 -29.53,-31.62 -9.16,-8.33 -20.97,-16.91 -35.41,-25.73l13.65 -19.12c11.74,7.84 22.69,15.94 32.85,24.27 10.15,8.33 20.48,18.87 30.99,31.61l200.5 -339.72 -48.31 -88.24 338.25 0 -97.29 88.24 39.11 380.9 39.03 -20.59 -38.09 -350.02 79.61 -76.48 12.08 16.18 -67.81 64.71 35.55 336.79 45.64 -17.65 11.85 110.3c-18.64,3.93 -36.73,8.58 -54.28,13.97 -17.52,5.39 -35.13,12.01 -52.8,19.85l36.31 327.96 89.85 92.65 -388.25 0 126.34 -92.65 -17.95 -173.55c-27.5,19.61 -54.53,42.16 -81.06,67.66 -26.54,25.49 -49.64,50.01 -69.31,73.54l-17.99 -10.3c23.1,-25.49 48.36,-51.72 75.75,-78.68 27.4,-26.96 56.7,-51.72 87.89,-74.27l-3.58 -38.24c-31.68,24.51 -62.94,51.23 -93.77,80.15 -30.84,28.93 -60.64,59.56 -89.4,91.92 -12.41,-32.36 -26.56,-63.73 -42.41,-94.12 -15.85,-30.39 -34.3,-58.33 -55.3,-83.82l-29.16 45.59c-12.8,19.61 -24.55,40.93 -35.27,63.98 -10.73,23.04 -19.06,46.32 -25,69.85 -7.68,30.39 -4.38,58.09 9.91,83.09 14.27,25 32.17,47.31 53.69,66.91l-57.88 60.3 -355.9 0 -15.03 -22.06 364.73 0 35.38 -35.3c-19.32,-16.67 -35.95,-37.25 -49.85,-61.77 -13.91,-24.51 -16.28,-54.9 -7.12,-91.19 7.43,-29.41 17.42,-56.38 30,-80.89 12.55,-24.51 26.09,-48.04 40.61,-70.59l27.32 -44.12 -23.47 -23.53 -33.61 57.36c-17.95,28.43 -33.35,56.37 -46.17,83.82 -12.81,27.46 -21.94,51.97 -27.39,73.54 -8.66,34.31 -8.85,62.26 -0.56,83.82 8.27,21.58 23.18,44.13 44.68,67.66l-1.48 5.88 -364.72 0 1.11 -4.41c74.62,-43.14 140.2,-95.1 196.73,-155.9 56.52,-60.78 109.41,-132.36 158.63,-214.72l22.88 -38.24c-29.35,-19.61 -58.49,-34.32 -87.38,-44.12l76.76 -111.77zm258.97 238.25c33.41,-31.37 70.02,-61.78 109.8,-91.19l-32.67 -313.26 -153.61 258.84c12.71,15.69 26.2,37.01 40.47,63.97 14.28,26.97 26.28,54.17 36.01,81.63zm378.52 213.24l105.61 111.77 -52.73 63.24 -383.85 0 -15.02 -22.06 389.73 0 30.98 -35.3 -97.17 -104.42 -31.98 -298.54c15.71,-7.84 33.25,-13.24 52.63,-16.18 19.37,-2.95 36.17,-5.4 50.38,-7.35 -7.5,-40.2 -12.29,-81.38 -14.39,-123.54l24.62 7.35c1.41,21.58 3.45,43.63 6.08,66.18 2.64,22.55 6.26,46.08 10.86,70.59 -16.67,0 -34.32,0.98 -52.96,2.95 -18.63,1.95 -35.68,6.37 -51.13,13.23l28.36 272.08zm-420.55 -169.13c4.18,-4.9 7.99,-9.32 11.43,-13.23 3.45,-3.93 7.75,-8.33 12.91,-13.24 -9.98,-30.39 -23.31,-60.05 -40.03,-88.97 -16.72,-28.92 -31.8,-51.72 -45.24,-68.39l176.12 -295.61 -6.49 -50 -209.35 351.48c44.22,53.93 77.78,113.24 100.66,177.95zm1518.01 -700.04c-28.76,36.28 -57.91,75.99 -87.43,119.12 -29.53,43.14 -55.74,84.8 -78.63,125 4.26,-40.2 1.16,-71.57 -9.33,-94.12 -10.49,-22.55 -26.31,-39.46 -47.48,-50.74 -21.18,-11.27 -46.64,-18.14 -76.43,-20.59 -29.78,-2.45 -61.33,-3.68 -94.65,-3.68l-204.99 811.81 87.98 100 -382.37 0 137.02 -100 190.51 -754.46c-37.25,0 -68.76,1.47 -94.5,4.42 -25.74,2.95 -48.25,9.56 -67.52,19.85 -19.27,10.3 -36.33,25.49 -51.22,45.59 -14.88,20.1 -29.96,46.82 -45.24,80.16l-15.05 -10.3c15.05,-36.28 31.42,-65.2 49.12,-86.77 17.7,-21.57 37.47,-37.74 59.31,-48.53 21.85,-10.79 46.68,-17.89 74.52,-21.33 27.82,-3.43 59.88,-5.15 96.15,-5.15l8.92 -35.29c-33.33,0 -65.26,1.22 -95.78,3.68 -30.52,2.44 -59.23,9.32 -86.09,20.59 -26.87,11.28 -51.25,28.19 -73.11,50.74 -21.87,22.55 -40.84,53.92 -56.86,94.12 -1.43,-17.64 -3.66,-37 -6.66,-58.09 -3.01,-21.08 -6.44,-42.4 -10.31,-63.97 -3.87,-21.58 -8.04,-42.89 -12.52,-63.98 -4.49,-21.08 -8.92,-40.44 -13.28,-58.09l905.93 0zm35.22 35.3c-30.75,40.2 -59.15,78.92 -85.22,116.18 -26.08,37.25 -54.13,80.4 -84.17,129.42l-16.49 -16.18c14.27,-21.57 28.1,-42.4 41.51,-62.51 13.41,-20.09 26.82,-40.2 40.23,-60.29 13.41,-20.1 27.67,-40.69 42.8,-61.77 15.13,-21.09 32.4,-42.9 51.83,-65.45l9.5 20.6zm-403.16 76.47c47.79,0.98 89.87,6.13 126.25,15.45 36.38,9.31 57.95,29.65 64.75,61.02l-11.04 2.95c-8.28,-21.57 -27.36,-36.27 -57.25,-44.12 -29.88,-7.84 -65.17,-12.75 -105.85,-14.72l-187.54 742.69 92.01 107.36 -55.3 61.77 -355.9 0 -16.49 -22.06 364.72 0 32.45 -35.3 -86.15 -101.47 195.34 -773.57zm257.22 932.41l-16.49 -22.06 364.72 0 32.45 -35.3 -86.15 -101.47 193.48 -766.22 123.77 -94.12 10.62 16.18 -114.56 86.77 -188.66 747.1 92.01 107.36 -55.3 61.77 -355.9 0zm-35.52 -57.36l137.02 -100 197.93 -783.87 -85.78 -102.95 380.9 0 -137.77 102.95 -197.93 783.87 86.52 100 -380.9 0zm1533.32 -492.67c-19.31,76.47 -47.27,149.28 -83.83,218.39 -36.57,69.12 -81.27,129.66 -134.1,181.63 -52.83,51.96 -113.3,93.38 -181.39,124.27 -68.11,30.88 -142.83,46.32 -224.21,46.32 -35.3,0 -67.22,-3.68 -95.75,-11.03 -28.53,-7.35 -53.44,-17.4 -74.74,-30.15 -21.3,-12.74 -39.03,-26.96 -53.21,-42.64 -14.18,-15.69 -24.43,-32.36 -30.76,-50.01l8.84 -5.88c23.7,34.31 55.79,62.5 96.29,84.56 40.52,22.06 92.15,33.09 154.89,33.09 77.45,0 148.51,-14.46 213.17,-43.38 64.67,-28.92 122.18,-68.39 172.56,-118.39 50.37,-50 93.22,-108.09 128.57,-174.27 35.34,-66.18 62.54,-137.02 81.61,-212.51 12.63,-50.01 19.67,-97.31 21.13,-141.92 1.46,-44.61 -1.68,-85.54 -9.43,-122.8 -7.75,-37.25 -18.88,-70.83 -33.39,-100.74 -14.51,-29.9 -31.55,-54.65 -51.11,-74.27l9.94 -4.41c54.31,41.18 88.42,100.25 102.32,177.21 13.91,76.96 8.1,165.94 -17.39,266.93zm-57.36 0c-18.33,72.55 -44.42,139.96 -78.28,202.22 -33.86,62.26 -74.26,116.43 -121.19,162.51 -46.92,46.08 -100.21,82.36 -159.83,108.83 -59.62,26.48 -124.25,39.71 -193.86,39.71 -73.54,0 -133.31,-13.72 -179.32,-41.17 -46.01,-27.46 -80.53,-64.47 -103.58,-111.04 -23.05,-46.57 -35.04,-100.98 -35.99,-163.24 -0.95,-62.27 7.37,-128.2 24.95,-197.81 18.81,-74.52 45.22,-143.14 79.2,-205.89 33.98,-62.75 74.38,-116.92 121.19,-162.51 46.8,-45.59 99.96,-81.38 159.47,-107.36 59.5,-25.97 124.06,-38.97 193.67,-38.97 76.47,0 137.84,14.21 184.1,42.64 46.25,28.44 80.23,66.67 101.92,114.72 21.69,48.04 32.59,102.95 32.68,164.71 0.08,61.77 -8.28,125.99 -25.12,192.66zm-177.95 0c9.65,-38.24 17.24,-82.85 22.76,-133.83 5.52,-50.99 4.92,-99.03 -1.84,-144.13 -6.76,-45.1 -22.1,-83.34 -46.04,-114.72 -23.95,-31.37 -60.43,-47.06 -109.45,-47.06 -33.34,0 -64.29,7.11 -92.88,21.33 -28.6,14.21 -54.94,33.09 -79.01,56.62 -24.08,23.54 -46.09,50.5 -66.03,80.89 -19.93,30.39 -37.46,62.02 -52.62,94.86 -15.18,32.85 -28.24,65.2 -39.23,97.07 -10.99,31.86 -19.95,61.51 -26.87,88.97 -13.62,53.92 -22.64,107.11 -27.06,159.56 -4.43,52.46 -1.78,99.27 7.92,140.45 9.7,41.18 26.78,74.52 51.23,100.01 24.45,25.48 58.73,38.24 102.84,38.24 43.14,0 83.37,-12.75 120.7,-38.24 37.32,-25.49 71.22,-58.83 101.72,-100.01 30.5,-41.18 57.02,-87.99 79.58,-140.45 22.56,-52.45 40.65,-105.64 54.27,-159.56zm-21.99 -320.61c-15.87,-22.55 -34.15,-38.48 -54.84,-47.79 -20.69,-9.32 -43.78,-13.97 -69.26,-13.97 -38.25,0 -73.45,14.21 -105.64,42.65 -32.18,28.43 -60.39,62.5 -84.64,102.2 -24.24,39.71 -44.62,81.63 -61.16,125.75 -16.53,44.12 -28.64,81.38 -36.3,111.77 -11.89,47.06 -19.48,92.65 -22.78,136.77 -3.3,44.12 -2.36,84.07 2.83,119.85 5.17,35.79 14.35,66.42 27.52,91.92 13.17,25.49 30.28,43.14 51.34,52.94l-5.55 10.3c-27.91,-9.81 -49.62,-27.7 -65.13,-53.68 -15.5,-25.97 -25.89,-57.6 -31.19,-94.85 -5.31,-37.25 -5.94,-78.43 -1.9,-123.54 4.03,-45.1 12.11,-91.67 24.25,-139.71 5.19,-20.59 12.49,-44.61 21.87,-72.06 9.39,-27.46 20.79,-56.13 34.22,-86.04 13.44,-29.9 29.01,-59.56 46.74,-88.97 17.71,-29.41 37.33,-55.63 58.84,-78.68 21.5,-23.04 44.84,-41.66 70,-55.89 25.17,-14.21 52.44,-21.32 81.86,-21.32 26.46,0 51.63,6.12 75.51,18.38 23.87,12.25 41.65,32.1 53.35,59.56l-9.94 4.41zm1321 -135.3c-20.12,9.81 -37.31,20.6 -51.56,32.36 -14.24,11.77 -26.53,25.49 -36.86,41.18 -10.35,15.69 -19.03,33.58 -26.06,53.68 -7.04,20.09 -13.9,43.38 -20.59,69.86l-204.25 808.86 -150.01 0 -16.49 -22.06 150.01 0 198.69 -786.81c5.44,-21.58 11.62,-43.14 18.54,-64.71 6.92,-21.58 15.92,-41.67 27,-60.3 11.08,-18.62 25.1,-35.29 42.04,-50 16.95,-14.72 37.69,-25.98 62.23,-33.83l7.32 11.76zm-25.64 -38.24c-28.46,11.77 -52.27,26.48 -71.45,44.13 -19.15,17.64 -34.89,37.25 -47.21,58.82 -12.3,21.57 -22.05,43.63 -29.2,66.18 -7.16,22.55 -13.48,44.61 -18.92,66.18l-189.77 751.51 -142.65 0 -187.97 -694.16 -123.29 488.27c-10.4,41.18 -15.2,73.78 -14.4,97.8 0.79,24.02 5.41,42.65 13.83,55.89 8.43,13.23 19.61,23.29 33.57,30.15 13.95,6.86 28.27,14.21 42.97,22.06l-49.79 57.36 -282.36 0 -16.49 -22.06 291.19 0 24.71 -27.95c-17.88,-6.86 -33.07,-14.71 -45.54,-23.53 -12.48,-8.83 -21.75,-20.59 -27.85,-35.3 -6.09,-14.71 -8.73,-34.31 -7.94,-58.82 0.79,-24.51 6.15,-56.38 16.05,-95.59l134.06 -530.91 -15.69 -48.53 -7.35 0 -138.89 550.03c-5.45,21.57 -10.28,43.62 -14.51,66.17 -4.22,22.55 -5.63,44.62 -4.21,66.18 1.41,21.57 7.25,41.18 17.49,58.83 10.26,17.64 26.64,32.34 49.17,44.12l-291.2 0c47.12,-23.53 83.83,-54.41 110.16,-92.65 26.32,-38.25 46.54,-85.31 60.66,-141.19l164.14 -650.03 -85.78 -102.95 402.97 0 -118.98 86.77 191.25 704.46 20.05 -79.42 -169.05 -617.69 95.03 -67.65 9.16 16.18 -79.2 57.36 155.56 566.2 109.56 -433.84c14.36,-56.87 17.91,-103.93 10.65,-141.18 -7.26,-37.26 -28.51,-67.66 -63.75,-91.19l291.2 0z"/>
    <path class="fil1" d="M10230.55 6772.3c-15.63,-19.61 -38.14,-35.3 -67.53,-47.06 -29.38,-11.77 -58.29,-17.65 -86.72,-17.65 -37.26,0 -69.39,7.84 -96.4,23.53 -27,15.69 -44.46,39.22 -52.39,70.59 -8.17,32.36 -5.97,60.54 6.6,84.56 12.55,24.02 29.85,42.89 51.88,56.62l-6.64 8.83c-28.4,-11.76 -50.36,-29.66 -65.86,-53.68 -15.5,-24.02 -18.18,-56.13 -8.03,-96.32 10.4,-41.18 32.1,-70.84 65.12,-88.97 33.01,-18.14 70.11,-27.21 111.29,-27.21 29.41,0 59.67,6.37 90.77,19.11 31.09,12.75 54.08,34.32 68.95,64.71l-11.04 2.95zm89.1 538.26c-12.63,50.01 -33.26,93.88 -61.91,131.63 -28.66,37.74 -62.5,68.88 -101.53,93.39 -39.04,24.51 -82.16,42.89 -129.38,55.14 -47.22,12.26 -95.82,18.38 -145.82,18.38 -35.3,0 -67.09,-4.17 -95.38,-12.5 -28.28,-8.32 -55.23,-17.15 -80.83,-26.46 -25.59,-9.32 -50.81,-18.14 -75.67,-26.48 -24.86,-8.33 -51.5,-12.5 -79.93,-12.5 -18.63,0 -38.99,2.95 -61.07,8.83 -22.07,5.88 -39.12,11.28 -51.14,16.18 37.12,-42.16 76.39,-88.97 117.83,-140.45 41.42,-51.47 77.64,-101.71 108.65,-150.74 -3.77,38.24 -3,74.02 2.31,107.35 5.31,33.34 16.89,62.26 34.72,86.77 17.82,24.51 42.65,43.63 74.49,57.36 31.82,13.72 72.25,20.59 121.28,20.59 27.45,0 54.98,-3.19 82.56,-9.56 27.59,-6.37 52.88,-16.18 75.81,-29.41 22.96,-13.23 43.09,-29.9 60.44,-50.01 17.32,-20.09 29.58,-44.37 36.76,-72.79 13.86,-54.9 9.97,-96.82 -11.63,-125.75 -21.63,-28.92 -52.39,-51.72 -92.3,-68.39 -39.91,-16.67 -83.62,-30.88 -131.16,-42.64 -47.51,-11.77 -90.74,-27.95 -129.65,-48.53 -38.92,-20.6 -68.15,-49.51 -87.66,-86.77 -19.51,-37.26 -20.73,-89.71 -3.64,-157.37 11.63,-46.08 30.98,-85.79 58.03,-119.12 27.04,-33.33 58.48,-60.78 94.32,-82.35 35.84,-21.58 74.67,-37.5 116.49,-47.8 41.81,-10.29 83.31,-15.44 124.49,-15.44 39.22,0 72.79,2.93 100.71,8.83 27.93,5.88 53.22,12.5 75.88,19.85 22.66,7.35 43.54,13.96 62.63,19.85 19.11,5.88 39.45,8.83 61.01,8.83 11.77,0 24.59,-2.21 38.44,-6.62 13.86,-4.42 27.05,-10.05 39.56,-16.92l5.15 2.95c-35.65,40.2 -69.39,80.64 -101.23,121.33 -31.84,40.69 -62.89,84.07 -93.16,130.15l-3.67 -2.93c1.78,-30.39 -0.66,-58.58 -7.33,-84.56 -6.68,-25.98 -17.64,-48.53 -32.92,-67.66 -15.27,-19.11 -34.96,-34.31 -59.08,-45.59 -24.12,-11.27 -52.84,-16.91 -86.17,-16.91 -20.6,0 -42.22,2.2 -64.91,6.62 -22.69,4.41 -44.27,12.25 -64.77,23.53 -20.49,11.27 -38.98,26.22 -55.44,44.85 -16.48,18.63 -28.3,42.16 -35.48,70.6 -8.92,35.29 -7.89,64.21 3.09,86.77 10.98,22.55 28.01,41.42 51.14,56.62 23.13,15.2 50.73,28.19 82.81,38.98 32.08,10.78 65.15,21.57 99.19,32.36 34.05,10.78 66.67,23.28 97.89,37.49 31.22,14.22 57.51,32.36 78.91,54.41 21.39,22.07 36.21,49.77 44.46,83.1 8.25,33.33 6.18,74.51 -6.19,123.53zm-175.46 30.88c-13.65,-27.45 -34.8,-49.51 -63.43,-66.18 -28.65,-16.66 -60.17,-30.63 -94.58,-41.91 -34.41,-11.27 -69.43,-22.06 -105.08,-32.36 -35.63,-10.29 -68.2,-23.04 -97.69,-38.24 -29.5,-15.2 -53.72,-34.81 -72.65,-58.83 -18.93,-24.02 -27.87,-55.63 -26.8,-94.85l7.38 -5.88c6.28,37.25 20.6,66.91 42.97,88.97 22.37,22.06 48.99,39.95 79.84,53.68 30.84,13.72 63.72,25.24 98.62,34.56 34.9,9.32 68.46,20.09 100.66,32.36 32.2,12.25 60.6,27.94 85.18,47.06 24.6,19.11 41.49,45.35 50.73,78.67l-5.16 2.95zm230.96 -23.53c-15.59,61.77 -40.97,114.72 -76.14,158.83 -35.16,44.13 -75.89,80.15 -122.15,108.09 -46.28,27.94 -96.34,48.53 -150.16,61.77 -53.84,13.24 -107.23,19.85 -160.17,19.85 -32.36,0 -62.92,-4.17 -91.71,-12.5 -28.77,-8.33 -56.45,-17.16 -83.03,-26.46 -26.56,-9.32 -52.52,-18.14 -77.88,-26.48 -25.34,-8.33 -51.74,-12.5 -79.19,-12.5 -13.73,0 -27.65,1.71 -41.75,5.15 -14.1,3.43 -28.14,7.59 -42.12,12.5l-10.25 -17.65c16.44,-6.86 32.99,-12.25 49.67,-16.18 16.68,-3.92 33.35,-5.88 50.02,-5.88 25.49,0 50.9,4.17 76.26,12.5 25.34,8.33 51.55,17.16 78.61,26.46 27.06,9.32 55.23,18.14 84.5,26.48 29.26,8.33 60.07,12.5 92.43,12.5 51.96,0 103.76,-6.13 155.39,-18.38 51.62,-12.26 99.18,-31.62 142.61,-58.09 43.46,-26.48 81.41,-60.3 113.87,-101.48 32.46,-41.17 55.99,-90.68 70.59,-148.53 13.87,-54.9 14.16,-99.76 0.9,-134.57 -13.27,-34.8 -32.49,-64.46 -57.69,-88.97l4.43 -5.88c31.59,14.71 55.23,42.4 70.94,83.09 15.72,40.69 16.39,89.46 2.03,146.33zm-461.94 204.42c-83.08,-0.98 -141.19,-19.36 -174.32,-55.14 -33.12,-35.79 -44.32,-92.41 -33.58,-169.86l23.84 22.06c-2.28,24.51 -1.04,47.79 3.69,69.86 4.71,22.06 14.16,41.91 28.34,59.56 14.16,17.64 33.8,32.1 58.89,43.38 25.1,11.27 57.49,17.89 97.2,19.85l-4.07 10.29zm587.49 -858.87c-35.9,41.18 -67.85,80.4 -95.9,117.66 -28.04,37.25 -58.29,79.42 -90.77,126.48l-15.4 -14.71c29.77,-44.13 59.53,-85.31 89.29,-123.54 29.75,-38.24 64.67,-80.4 104.73,-126.48l8.05 20.59zm536.67 920.65l-55.3 61.77 -355.9 0 -16.49 -22.06 364.72 0 32.45 -35.3 -86.15 -101.47 77.24 -305.9 341.09 -395.61c35.9,-41.18 72.33,-81.62 109.32,-121.33 36.99,-39.71 73.31,-76.72 108.93,-111.04 35.62,-34.31 69.35,-64.95 101.15,-91.92 31.81,-26.96 60.12,-48.77 84.91,-65.44l8.42 19.12c-64.35,45.1 -131.58,102.7 -201.74,172.8 -70.15,70.11 -138.55,143.89 -205.17,221.34l-326.33 377.97 -73.16 289.72 92.01 107.36zm690.97 -1216.24c-30.44,19.6 -59.73,41.42 -87.85,65.44 -28.13,24.02 -55.52,49.02 -82.18,75 -26.65,25.98 -51.48,51.48 -74.45,76.48 -22.99,25 -44.05,48.28 -63.23,69.85l-455.37 516.21 -80.21 317.66 86.51 100 -380.9 0 137.02 -100 79.47 -314.73 -174.19 -469.14 -84.3 -102.95 370.6 0 -104.65 94.12 143.89 385.32 30.98 -35.3 -130.02 -347.07 82.18 -75.01 12.46 14.72 -68.54 61.77 120.51 326.49 278.01 -314.73c36.14,-42.15 58.9,-81.86 68.31,-119.12 6.19,-24.51 6.67,-43.88 1.44,-58.09 -5.23,-14.21 -15.06,-27.7 -29.49,-40.44 21.82,-4.91 48.25,-11.52 79.28,-19.85 31.02,-8.33 64.32,-17.9 99.89,-28.68 35.57,-10.79 72.67,-22.8 111.31,-36.03 38.65,-13.24 76.48,-27.21 113.54,-41.91zm278.77 404.43c-15.63,-19.61 -38.14,-35.3 -67.53,-47.06 -29.38,-11.77 -58.29,-17.65 -86.72,-17.65 -37.26,0 -69.39,7.84 -96.4,23.53 -27,15.69 -44.46,39.22 -52.39,70.59 -8.17,32.36 -5.97,60.54 6.6,84.56 12.55,24.02 29.85,42.89 51.88,56.62l-6.64 8.83c-28.4,-11.76 -50.36,-29.66 -65.86,-53.68 -15.5,-24.02 -18.18,-56.13 -8.03,-96.32 10.4,-41.18 32.1,-70.84 65.12,-88.97 33.01,-18.14 70.11,-27.21 111.29,-27.21 29.41,0 59.67,6.37 90.77,19.11 31.09,12.75 54.08,34.32 68.95,64.71l-11.04 2.95zm89.1 538.26c-12.63,50.01 -33.26,93.88 -61.91,131.63 -28.66,37.74 -62.5,68.88 -101.53,93.39 -39.04,24.51 -82.16,42.89 -129.38,55.14 -47.22,12.26 -95.82,18.38 -145.82,18.38 -35.3,0 -67.09,-4.17 -95.38,-12.5 -28.28,-8.32 -55.23,-17.15 -80.83,-26.46 -25.59,-9.32 -50.81,-18.14 -75.67,-26.48 -24.86,-8.33 -51.5,-12.5 -79.93,-12.5 -18.63,0 -38.99,2.95 -61.07,8.83 -22.07,5.88 -39.12,11.28 -51.14,16.18 37.12,-42.16 76.39,-88.97 117.83,-140.45 41.42,-51.47 77.64,-101.71 108.65,-150.74 -3.77,38.24 -3,74.02 2.31,107.35 5.31,33.34 16.89,62.26 34.72,86.77 17.82,24.51 42.65,43.63 74.49,57.36 31.82,13.72 72.25,20.59 121.28,20.59 27.45,0 54.98,-3.19 82.56,-9.56 27.59,-6.37 52.88,-16.18 75.81,-29.41 22.96,-13.23 43.09,-29.9 60.44,-50.01 17.32,-20.09 29.58,-44.37 36.76,-72.79 13.86,-54.9 9.97,-96.82 -11.63,-125.75 -21.63,-28.92 -52.39,-51.72 -92.3,-68.39 -39.91,-16.67 -83.62,-30.88 -131.16,-42.64 -47.51,-11.77 -90.74,-27.95 -129.65,-48.53 -38.92,-20.6 -68.15,-49.51 -87.66,-86.77 -19.51,-37.26 -20.73,-89.71 -3.64,-157.37 11.63,-46.08 30.98,-85.79 58.03,-119.12 27.04,-33.33 58.48,-60.78 94.32,-82.35 35.84,-21.58 74.67,-37.5 116.49,-47.8 41.81,-10.29 83.31,-15.44 124.49,-15.44 39.22,0 72.79,2.93 100.71,8.83 27.93,5.88 53.22,12.5 75.88,19.85 22.66,7.35 43.54,13.96 62.63,19.85 19.11,5.88 39.45,8.83 61.01,8.83 11.77,0 24.59,-2.21 38.44,-6.62 13.86,-4.42 27.05,-10.05 39.56,-16.92l5.15 2.95c-35.65,40.2 -69.39,80.64 -101.23,121.33 -31.84,40.69 -62.89,84.07 -93.16,130.15l-3.67 -2.93c1.78,-30.39 -0.66,-58.58 -7.33,-84.56 -6.68,-25.98 -17.64,-48.53 -32.92,-67.66 -15.27,-19.11 -34.96,-34.31 -59.08,-45.59 -24.12,-11.27 -52.84,-16.91 -86.17,-16.91 -20.6,0 -42.22,2.2 -64.91,6.62 -22.69,4.41 -44.27,12.25 -64.77,23.53 -20.49,11.27 -38.98,26.22 -55.44,44.85 -16.48,18.63 -28.3,42.16 -35.48,70.6 -8.92,35.29 -7.89,64.21 3.09,86.77 10.98,22.55 28.01,41.42 51.14,56.62 23.13,15.2 50.73,28.19 82.81,38.98 32.08,10.78 65.15,21.57 99.19,32.36 34.05,10.78 66.67,23.28 97.89,37.49 31.22,14.22 57.51,32.36 78.91,54.41 21.39,22.07 36.21,49.77 44.46,83.1 8.25,33.33 6.18,74.51 -6.19,123.53zm-175.46 30.88c-13.65,-27.45 -34.8,-49.51 -63.43,-66.18 -28.65,-16.66 -60.17,-30.63 -94.58,-41.91 -34.41,-11.27 -69.43,-22.06 -105.08,-32.36 -35.63,-10.29 -68.2,-23.04 -97.69,-38.24 -29.5,-15.2 -53.72,-34.81 -72.65,-58.83 -18.93,-24.02 -27.87,-55.63 -26.8,-94.85l7.38 -5.88c6.28,37.25 20.6,66.91 42.97,88.97 22.37,22.06 48.99,39.95 79.84,53.68 30.84,13.72 63.72,25.24 98.62,34.56 34.9,9.32 68.46,20.09 100.66,32.36 32.2,12.25 60.6,27.94 85.18,47.06 24.6,19.11 41.49,45.35 50.73,78.67l-5.16 2.95zm230.96 -23.53c-15.59,61.77 -40.97,114.72 -76.14,158.83 -35.16,44.13 -75.89,80.15 -122.15,108.09 -46.28,27.94 -96.34,48.53 -150.16,61.77 -53.84,13.24 -107.23,19.85 -160.17,19.85 -32.36,0 -62.92,-4.17 -91.71,-12.5 -28.77,-8.33 -56.45,-17.16 -83.03,-26.46 -26.56,-9.32 -52.52,-18.14 -77.88,-26.48 -25.34,-8.33 -51.74,-12.5 -79.19,-12.5 -13.73,0 -27.65,1.71 -41.75,5.15 -14.1,3.43 -28.14,7.59 -42.12,12.5l-10.25 -17.65c16.44,-6.86 32.99,-12.25 49.67,-16.18 16.68,-3.92 33.35,-5.88 50.02,-5.88 25.49,0 50.9,4.17 76.26,12.5 25.34,8.33 51.55,17.16 78.61,26.46 27.06,9.32 55.23,18.14 84.5,26.48 29.26,8.33 60.07,12.5 92.43,12.5 51.96,0 103.76,-6.13 155.39,-18.38 51.62,-12.26 99.18,-31.62 142.61,-58.09 43.46,-26.48 81.41,-60.3 113.87,-101.48 32.46,-41.17 55.99,-90.68 70.59,-148.53 13.87,-54.9 14.16,-99.76 0.9,-134.57 -13.27,-34.8 -32.49,-64.46 -57.69,-88.97l4.43 -5.88c31.59,14.71 55.23,42.4 70.94,83.09 15.72,40.69 16.39,89.46 2.03,146.33zm-461.94 204.42c-83.08,-0.98 -141.19,-19.36 -174.32,-55.14 -33.12,-35.79 -44.32,-92.41 -33.58,-169.86l23.84 22.06c-2.28,24.51 -1.04,47.79 3.69,69.86 4.71,22.06 14.16,41.91 28.34,59.56 14.16,17.64 33.8,32.1 58.89,43.38 25.1,11.27 57.49,17.89 97.2,19.85l-4.07 10.29zm587.49 -858.87c-35.9,41.18 -67.85,80.4 -95.9,117.66 -28.04,37.25 -58.29,79.42 -90.77,126.48l-15.4 -14.71c29.77,-44.13 59.53,-85.31 89.29,-123.54 29.75,-38.24 64.67,-80.4 104.73,-126.48l8.05 20.59zm968.57 -61.77c-28.76,36.28 -57.91,75.99 -87.43,119.12 -29.53,43.14 -55.74,84.8 -78.63,125 4.26,-40.2 1.16,-71.57 -9.33,-94.12 -10.49,-22.55 -26.31,-39.46 -47.48,-50.74 -21.18,-11.27 -46.64,-18.14 -76.43,-20.59 -29.78,-2.45 -61.33,-3.68 -94.65,-3.68l-204.99 811.81 87.98 100 -382.37 0 137.02 -100 190.51 -754.46c-37.25,0 -68.76,1.47 -94.5,4.42 -25.74,2.95 -48.25,9.56 -67.52,19.85 -19.27,10.3 -36.33,25.49 -51.22,45.59 -14.88,20.1 -29.96,46.82 -45.24,80.16l-15.05 -10.3c15.05,-36.28 31.42,-65.2 49.12,-86.77 17.7,-21.57 37.47,-37.74 59.31,-48.53 21.85,-10.79 46.68,-17.89 74.52,-21.33 27.82,-3.43 59.88,-5.15 96.15,-5.15l8.92 -35.29c-33.33,0 -65.26,1.22 -95.78,3.68 -30.52,2.44 -59.23,9.32 -86.09,20.59 -26.87,11.28 -51.25,28.19 -73.11,50.74 -21.87,22.55 -40.84,53.92 -56.86,94.12 -1.43,-17.64 -3.66,-37 -6.66,-58.09 -3.01,-21.08 -6.44,-42.4 -10.31,-63.97 -3.87,-21.58 -8.04,-42.89 -12.52,-63.98 -4.49,-21.08 -8.92,-40.44 -13.28,-58.09l905.93 0zm35.22 35.3c-30.75,40.2 -59.15,78.92 -85.22,116.18 -26.08,37.25 -54.13,80.4 -84.17,129.42l-16.49 -16.18c14.27,-21.57 28.1,-42.4 41.51,-62.51 13.41,-20.09 26.82,-40.2 40.23,-60.29 13.41,-20.1 27.67,-40.69 42.8,-61.77 15.13,-21.09 32.4,-42.9 51.83,-65.45l9.5 20.6zm-403.16 76.47c47.79,0.98 89.87,6.13 126.25,15.45 36.38,9.31 57.95,29.65 64.75,61.02l-11.04 2.95c-8.28,-21.57 -27.36,-36.27 -57.25,-44.12 -29.88,-7.84 -65.17,-12.75 -105.85,-14.72l-187.54 742.69 92.01 107.36 -55.3 61.77 -355.9 0 -16.49 -22.06 364.72 0 32.45 -35.3 -86.15 -101.47 195.34 -773.57zm1285.16 -69.12c-43.5,44.12 -79.94,84.56 -109.33,121.33 -29.37,36.76 -56.61,73.78 -81.7,111.04l-15.42 -14.72c9.85,-15.69 22.14,-33.33 36.9,-52.94 14.76,-19.6 30.75,-40.2 47.96,-61.77 17.21,-21.57 35.52,-42.65 54.95,-63.24 19.42,-20.6 38.71,-39.71 57.87,-57.36l8.77 17.65zm-401.54 600.03l83.19 -329.42 16.87 20.59 -83.19 329.43 -16.87 -20.6zm-695.75 344.14l137.39 -101.47 84.3 -333.84c-25.49,0 -49.65,6.37 -72.47,19.11 -22.84,12.75 -40.27,25.49 -52.31,38.25l-14.31 -13.24c19.16,-17.65 40.65,-32.85 64.45,-45.59 23.81,-12.74 50.56,-19.61 80.21,-20.59l8.92 -35.3c-25.49,0 -53.39,6.62 -83.7,19.85 -30.3,13.23 -56.15,29.17 -77.52,47.79 11.14,-44.12 33.41,-78.92 66.81,-104.41 33.4,-25.49 71.3,-38.74 113.71,-39.71l79.47 -314.73 -85.78 -102.95 817.69 0c-38.08,38.24 -72.74,76.48 -103.97,114.72 -31.23,38.24 -63.2,79.42 -95.9,123.53 -4.85,-23.53 -10.37,-45.35 -16.57,-65.44 -6.19,-20.1 -15.28,-37.5 -27.26,-52.21 -11.97,-14.71 -27.99,-25.98 -48.07,-33.83 -20.08,-7.84 -46.3,-11.76 -78.65,-11.76l-197.07 0 -86.53 342.67 35.3 0 77.61 -307.38 161.77 0c13.73,0 28.69,0.98 44.86,2.95 16.18,1.96 31.6,5.88 46.3,11.76 14.68,5.89 27.48,13.48 38.36,22.8 10.88,9.32 17.9,21.33 21.04,36.03l-6.99 4.41c-6.84,-11.76 -16.68,-21.32 -29.53,-28.67 -12.86,-7.36 -26.38,-12.99 -40.59,-16.92 -14.2,-3.92 -28.48,-6.61 -42.82,-8.08 -14.33,-1.47 -26.4,-2.21 -36.21,-2.21l-139.71 0 -72.04 285.32 145.6 0 128.98 -126.48 4.42 0 -83.18 329.42 -4.42 0 -65.12 -126.48 -202.96 0 -105.47 417.66 35.3 0 96.55 -382.36 167.66 0 10.61 22.06 -161.78 0 -90.99 360.31 72.06 0c41.18,0 76.42,-1.71 105.72,-5.14 29.3,-3.44 56.83,-11.52 82.59,-24.27 25.77,-12.74 51.25,-31.12 76.44,-55.14 25.17,-24.02 54.25,-56.63 87.19,-97.81 2.63,28.44 6.07,53.68 10.3,75.74 4.24,22.07 9.26,42.89 15.1,62.51 5.84,19.61 13.2,38.98 22.09,58.09 8.91,19.12 19.46,39.47 31.66,61.03l-848.57 0zm860.56 57.36l-825.04 0 -13.56 -22.06 830.93 0 37.95 -33.83c-12.94,-22.55 -24.09,-43.38 -33.48,-62.51 -9.39,-19.11 -17.18,-37.74 -23.38,-55.89 -6.21,-18.14 -11.12,-36.52 -14.76,-55.14 -3.63,-18.63 -6.16,-38.73 -7.57,-60.3l26.44 11.77c0.94,15.69 2.92,31.12 5.94,46.32 3.04,15.21 7.71,31.62 14.04,49.27 6.33,17.65 14.5,36.76 24.49,57.36 10.01,20.59 22.44,44.12 37.32,70.59l-59.32 54.41zm771.87 -57.36l137.02 -100 126.26 -500.04 -408.65 657.39 -55.89 0 -16.49 -22.06 63.24 0 433.39 -697.1 26.36 -104.42 -475.84 766.22 -52.95 0 -51.44 -600.04 -97.3 385.32c-9.65,38.24 -14.82,69.37 -15.5,93.39 -0.67,24.02 2.35,43.13 9.04,57.36 6.72,14.21 15.76,24.99 27.13,32.34 11.37,7.36 24.54,14.46 39.48,21.33l13.21 5.89 -49.42 61.77 -279.43 0 -16.49 -22.06 288.25 0 24.34 -32.36c-17.87,-6.87 -32.74,-14.96 -44.61,-24.27 -11.85,-9.32 -21.02,-21.57 -27.49,-36.76 -6.44,-15.2 -8.97,-35.3 -7.56,-60.3 1.4,-24.99 7.07,-57.11 16.97,-96.32l113.64 -450.02 -7.86 -91.19 -4.42 0 -131.46 520.62c-5.45,21.57 -10.28,43.62 -14.51,66.17 -4.22,22.55 -5.63,44.62 -4.21,66.18 1.41,21.57 7.25,41.18 17.49,58.83 10.26,17.64 26.64,32.34 49.17,44.12l-291.2 0c47.12,-23.53 83.77,-54.17 109.97,-91.92 26.2,-37.74 46.49,-85.06 60.85,-141.92l164.14 -650.03 -85.78 -102.95 408.85 0 -140.71 102.95 55.77 629.45 33.96 -52.94 -51.53 -564.74 119.35 -88.24 10.62 16.18 -106.46 77.94 47.95 526.5 356.59 -567.68 -66.72 -79.42 380.9 0 -137.77 102.95 -197.93 783.87 86.52 100 -380.9 0zm35.52 57.36l-16.49 -22.06 364.72 0 32.45 -35.3 -86.15 -101.47 193.48 -766.22 123.77 -94.12 10.62 16.18 -114.56 86.77 -188.66 747.1 92.01 107.36 -55.3 61.77 -355.9 0zm1248.59 -873.57c-15.63,-19.61 -38.14,-35.3 -67.53,-47.06 -29.38,-11.77 -58.29,-17.65 -86.72,-17.65 -37.26,0 -69.39,7.84 -96.4,23.53 -27,15.69 -44.46,39.22 -52.39,70.59 -8.17,32.36 -5.97,60.54 6.6,84.56 12.55,24.02 29.85,42.89 51.88,56.62l-6.64 8.83c-28.4,-11.76 -50.36,-29.66 -65.86,-53.68 -15.5,-24.02 -18.18,-56.13 -8.03,-96.32 10.4,-41.18 32.1,-70.84 65.12,-88.97 33.01,-18.14 70.11,-27.21 111.29,-27.21 29.41,0 59.67,6.37 90.77,19.11 31.09,12.75 54.08,34.32 68.95,64.71l-11.04 2.95zm89.1 538.26c-12.63,50.01 -33.26,93.88 -61.91,131.63 -28.66,37.74 -62.5,68.88 -101.53,93.39 -39.04,24.51 -82.16,42.89 -129.38,55.14 -47.22,12.26 -95.82,18.38 -145.82,18.38 -35.3,0 -67.09,-4.17 -95.38,-12.5 -28.28,-8.32 -55.23,-17.15 -80.83,-26.46 -25.59,-9.32 -50.81,-18.14 -75.67,-26.48 -24.86,-8.33 -51.5,-12.5 -79.93,-12.5 -18.63,0 -38.99,2.95 -61.07,8.83 -22.07,5.88 -39.12,11.28 -51.14,16.18 37.12,-42.16 76.39,-88.97 117.83,-140.45 41.42,-51.47 77.64,-101.71 108.65,-150.74 -3.77,38.24 -3,74.02 2.31,107.35 5.31,33.34 16.89,62.26 34.72,86.77 17.82,24.51 42.65,43.63 74.49,57.36 31.82,13.72 72.25,20.59 121.28,20.59 27.45,0 54.98,-3.19 82.56,-9.56 27.59,-6.37 52.88,-16.18 75.81,-29.41 22.96,-13.23 43.09,-29.9 60.44,-50.01 17.32,-20.09 29.58,-44.37 36.76,-72.79 13.86,-54.9 9.97,-96.82 -11.63,-125.75 -21.63,-28.92 -52.39,-51.72 -92.3,-68.39 -39.91,-16.67 -83.62,-30.88 -131.16,-42.64 -47.51,-11.77 -90.74,-27.95 -129.65,-48.53 -38.92,-20.6 -68.15,-49.51 -87.66,-86.77 -19.51,-37.26 -20.73,-89.71 -3.64,-157.37 11.63,-46.08 30.98,-85.79 58.03,-119.12 27.04,-33.33 58.48,-60.78 94.32,-82.35 35.84,-21.58 74.67,-37.5 116.49,-47.8 41.81,-10.29 83.31,-15.44 124.49,-15.44 39.22,0 72.79,2.93 100.71,8.83 27.93,5.88 53.22,12.5 75.88,19.85 22.66,7.35 43.54,13.96 62.63,19.85 19.11,5.88 39.45,8.83 61.01,8.83 11.77,0 24.59,-2.21 38.44,-6.62 13.86,-4.42 27.05,-10.05 39.56,-16.92l5.15 2.95c-35.65,40.2 -69.39,80.64 -101.23,121.33 -31.84,40.69 -62.89,84.07 -93.16,130.15l-3.67 -2.93c1.78,-30.39 -0.66,-58.58 -7.33,-84.56 -6.68,-25.98 -17.64,-48.53 -32.92,-67.66 -15.27,-19.11 -34.96,-34.31 -59.08,-45.59 -24.12,-11.27 -52.84,-16.91 -86.17,-16.91 -20.6,0 -42.22,2.2 -64.91,6.62 -22.69,4.41 -44.27,12.25 -64.77,23.53 -20.49,11.27 -38.98,26.22 -55.44,44.85 -16.48,18.63 -28.3,42.16 -35.48,70.6 -8.92,35.29 -7.89,64.21 3.09,86.77 10.98,22.55 28.01,41.42 51.14,56.62 23.13,15.2 50.73,28.19 82.81,38.98 32.08,10.78 65.15,21.57 99.19,32.36 34.05,10.78 66.67,23.28 97.89,37.49 31.22,14.22 57.51,32.36 78.91,54.41 21.39,22.07 36.21,49.77 44.46,83.1 8.25,33.33 6.18,74.51 -6.19,123.53zm-175.46 30.88c-13.65,-27.45 -34.8,-49.51 -63.43,-66.18 -28.65,-16.66 -60.17,-30.63 -94.58,-41.91 -34.41,-11.27 -69.43,-22.06 -105.08,-32.36 -35.63,-10.29 -68.2,-23.04 -97.69,-38.24 -29.5,-15.2 -53.72,-34.81 -72.65,-58.83 -18.93,-24.02 -27.87,-55.63 -26.8,-94.85l7.38 -5.88c6.28,37.25 20.6,66.91 42.97,88.97 22.37,22.06 48.99,39.95 79.84,53.68 30.84,13.72 63.72,25.24 98.62,34.56 34.9,9.32 68.46,20.09 100.66,32.36 32.2,12.25 60.6,27.94 85.18,47.06 24.6,19.11 41.49,45.35 50.73,78.67l-5.16 2.95zm230.96 -23.53c-15.59,61.77 -40.97,114.72 -76.14,158.83 -35.16,44.13 -75.89,80.15 -122.15,108.09 -46.28,27.94 -96.34,48.53 -150.16,61.77 -53.84,13.24 -107.23,19.85 -160.17,19.85 -32.36,0 -62.92,-4.17 -91.71,-12.5 -28.77,-8.33 -56.45,-17.16 -83.03,-26.46 -26.56,-9.32 -52.52,-18.14 -77.88,-26.48 -25.34,-8.33 -51.74,-12.5 -79.19,-12.5 -13.73,0 -27.65,1.71 -41.75,5.15 -14.1,3.43 -28.14,7.59 -42.12,12.5l-10.25 -17.65c16.44,-6.86 32.99,-12.25 49.67,-16.18 16.68,-3.92 33.35,-5.88 50.02,-5.88 25.49,0 50.9,4.17 76.26,12.5 25.34,8.33 51.55,17.16 78.61,26.46 27.06,9.32 55.23,18.14 84.5,26.48 29.26,8.33 60.07,12.5 92.43,12.5 51.96,0 103.76,-6.13 155.39,-18.38 51.62,-12.26 99.18,-31.62 142.61,-58.09 43.46,-26.48 81.41,-60.3 113.87,-101.48 32.46,-41.17 55.99,-90.68 70.59,-148.53 13.87,-54.9 14.16,-99.76 0.9,-134.57 -13.27,-34.8 -32.49,-64.46 -57.69,-88.97l4.43 -5.88c31.59,14.71 55.23,42.4 70.94,83.09 15.72,40.69 16.39,89.46 2.03,146.33zm-461.94 204.42c-83.08,-0.98 -141.19,-19.36 -174.32,-55.14 -33.12,-35.79 -44.32,-92.41 -33.58,-169.86l23.84 22.06c-2.28,24.51 -1.04,47.79 3.69,69.86 4.71,22.06 14.16,41.91 28.34,59.56 14.16,17.64 33.8,32.1 58.89,43.38 25.1,11.27 57.49,17.89 97.2,19.85l-4.07 10.29zm587.49 -858.87c-35.9,41.18 -67.85,80.4 -95.9,117.66 -28.04,37.25 -58.29,79.42 -90.77,126.48l-15.4 -14.71c29.77,-44.13 59.53,-85.31 89.29,-123.54 29.75,-38.24 64.67,-80.4 104.73,-126.48l8.05 20.59z"/>
   </g>
   <g style="clip-path:url(#id0)">
    <image id="Layer_x0020_1.png" x="6148.99" y="0.01" width="3547.76" height="5832.76" xlink:href="Logo_Images\Logo_ImgID1.png"/>
   </g>
  </g>
 </g>
</svg>
