<?xml version="1.0" encoding="iso-8859-1"?>
<!-- Generator: Adobe Illustrator 19.0.0, SVG Export Plug-In . SVG Version: 6.00 Build 0)  -->
<svg version="1.1" id="Layer_1" xmlns="http://www.w3.org/2000/svg" xmlns:xlink="http://www.w3.org/1999/xlink" x="0px" y="0px"
	 viewBox="0 0 512 512" style="enable-background:new 0 0 512 512;" xml:space="preserve">
<g>
	<g>
		<path d="M413.538,118.157h-22.505c-9.322,0-16.879,7.557-16.879,16.879s7.557,16.879,16.879,16.879h22.505
			c9.322,0,16.879-7.557,16.879-16.879S422.859,118.157,413.538,118.157z"/>
	</g>
</g>
<g>
	<g>
		<path d="M492.306,118.157h-22.505c-9.322,0-16.879,7.557-16.879,16.879s7.557,16.879,16.879,16.879h22.505
			c9.322,0,16.879-7.556,16.879-16.879C509.185,125.714,501.628,118.157,492.306,118.157z"/>
	</g>
</g>
<g>
	<g>
		<path d="M42.199,118.157H19.694c-9.323,0-16.879,7.557-16.879,16.879s7.557,16.879,16.879,16.879h22.505
			c9.322,0,16.879-7.557,16.879-16.879S51.521,118.157,42.199,118.157z"/>
	</g>
</g>
<g>
	<g>
		<path d="M120.968,118.157H98.463c-9.323,0-16.879,7.557-16.879,16.879s7.557,16.879,16.879,16.879h22.505
			c9.322,0,16.879-7.557,16.879-16.879S130.29,118.157,120.968,118.157z"/>
	</g>
</g>
<g>
	<g>
		<path d="M407.049,47.828c-4.661-8.074-14.984-10.84-23.057-6.178l-19.491,11.253c-8.073,4.661-10.84,14.983-6.178,23.057
			c4.661,8.074,14.984,10.84,23.057,6.178l19.491-11.253C408.944,66.224,411.711,55.901,407.049,47.828z"/>
	</g>
</g>
<g>
	<g>
		<path d="M475.264,8.444c-4.661-8.074-14.984-10.84-23.057-6.178l-19.49,11.253c-8.074,4.661-10.84,14.984-6.178,23.057
			c4.661,8.074,14.984,10.839,23.057,6.178l19.49-11.253C477.16,26.84,479.926,16.517,475.264,8.444z"/>
	</g>
</g>
<g>
	<g>
		<path d="M85.459,233.498c-4.661-8.075-14.984-10.84-23.057-6.178l-19.49,11.253c-8.074,4.661-10.84,14.984-6.178,23.057
			c4.662,8.074,14.985,10.839,23.057,6.178l19.49-11.253C87.355,251.894,90.121,241.571,85.459,233.498z"/>
	</g>
</g>
<g>
	<g>
		<path d="M153.675,194.114c-4.662-8.074-14.984-10.841-23.057-6.178l-19.49,11.253c-8.074,4.661-10.84,14.984-6.178,23.057
			c4.662,8.074,14.985,10.839,23.057,6.178l19.49-11.253C155.571,212.509,158.337,202.186,153.675,194.114z"/>
	</g>
</g>
<g>
	<g>
		<path d="M400.872,199.189l-19.491-11.253c-8.074-4.664-18.398-1.895-23.057,6.178c-4.662,8.073-1.895,18.396,6.178,23.057
			l19.491,11.253c8.075,4.663,18.398,1.894,23.057-6.178C411.711,214.171,408.944,203.848,400.872,199.189z"/>
	</g>
</g>
<g>
	<g>
		<path d="M469.086,238.573l-19.49-11.253c-8.073-4.663-18.397-1.897-23.057,6.178c-4.662,8.072-1.896,18.396,6.178,23.057
			l19.49,11.253c8.073,4.662,18.396,1.896,23.057-6.178C479.926,253.557,477.16,243.233,469.086,238.573z"/>
	</g>
</g>
<g>
	<g>
		<path d="M79.283,13.518L59.793,2.266C51.72-2.397,41.396,0.368,36.736,8.443C32.074,16.516,34.84,26.84,42.914,31.5l19.49,11.253
			c8.073,4.662,18.396,1.896,23.057-6.178C90.122,28.504,87.356,18.179,79.283,13.518z"/>
	</g>
</g>
<g>
	<g>
		<path d="M147.499,52.903l-19.49-11.253c-8.074-4.664-18.396-1.897-23.057,6.178c-4.662,8.073-1.896,18.397,6.178,23.057
			l19.49,11.253c8.073,4.662,18.396,1.896,23.057-6.178C158.338,67.888,155.572,57.564,147.499,52.903z"/>
	</g>
</g>
<g>
	<g>
		<path d="M357.274,410.726h-16.879V270.068c0-22.005-14.112-40.766-33.758-47.734v-36.661h16.879
			c9.322,0,16.879-7.557,16.879-16.879v-33.758c0-46.535-37.86-84.395-84.395-84.395s-84.395,37.86-84.395,84.395v33.758
			c0,9.322,7.557,16.879,16.879,16.879h16.879v36.661c-19.646,6.968-33.758,25.729-33.758,47.734v140.658h-16.879
			c-27.921,0-50.637,22.716-50.637,50.637v33.758c0,9.322,7.557,16.879,16.879,16.879h270.064c9.322,0,16.879-7.557,16.879-16.879
			v-33.758C407.911,433.442,385.196,410.726,357.274,410.726z M205.363,135.036c0-27.921,22.716-50.637,50.637-50.637
			c27.921,0,50.637,22.716,50.637,50.637v16.879c-10.239,0-84.805,0-101.274,0L205.363,135.036L205.363,135.036z M272.879,185.673
			v33.758h-33.758v-33.758H272.879z M205.363,270.068c0-9.307,7.572-16.879,16.879-16.879h67.516
			c9.307,0,16.879,7.572,16.879,16.879v140.658H205.363V270.068z M374.153,478.242H137.847v-16.879
			c0-9.307,7.572-16.879,16.879-16.879h202.548c9.307,0,16.879,7.572,16.879,16.879V478.242z"/>
	</g>
</g>
<g>
</g>
<g>
</g>
<g>
</g>
<g>
</g>
<g>
</g>
<g>
</g>
<g>
</g>
<g>
</g>
<g>
</g>
<g>
</g>
<g>
</g>
<g>
</g>
<g>
</g>
<g>
</g>
<g>
</g>
</svg>
